<svg width="32" height="31" viewBox="0 0 32 31" fill="none" xmlns="http://www.w3.org/2000/svg">
<path fill-rule="evenodd" clip-rule="evenodd" d="M19.0063 5.90919C19.0436 5.7821 19.0814 5.64603 19.1007 5.48557C19.1418 4.92395 19.4325 4.26027 19.7637 3.80713C19.8825 3.64538 20.0019 3.51637 20.1071 3.42843C20.8555 2.80134 21.722 2.83793 22.4114 3.53113C23.1418 4.26669 23.034 5.42203 22.17 6.00098C21.93 6.16208 21.6668 6.22177 21.4171 6.20508C20.7599 6.16015 20.2028 5.58506 20.4178 4.90213C20.5051 4.62485 20.688 4.38672 20.9075 4.1993C20.9987 4.12228 21.1341 4.08569 21.2695 4.09468C21.3966 4.10366 21.5218 4.15373 21.6103 4.24936C21.6636 4.30713 21.7008 4.37196 21.722 4.43871C21.8087 4.70636 21.6585 5.00033 21.3921 5.08762L21.3619 5.09789C21.1912 5.15181 20.9858 5.21728 21.0513 5.46246L21.0564 5.48043C21.0834 5.56131 21.1418 5.62357 21.2291 5.65566C21.3376 5.6961 21.464 5.67684 21.5718 5.64026C21.7317 5.58634 21.8697 5.50226 21.9833 5.39828C22.1392 5.2545 22.2477 5.07157 22.3003 4.87388C22.3979 4.5061 22.2939 4.1319 22.0385 3.85462C21.81 3.60687 21.5102 3.46117 21.1675 3.49198C20.8202 3.52343 20.5147 3.72561 20.2856 3.97914C19.826 4.48621 19.627 5.18903 19.9287 5.82896C20.0031 5.98621 20.1046 6.12935 20.2259 6.25387L20.2329 11.1968C19.7753 11.1942 19.3356 11.1916 19.0063 11.191V5.96632V5.90919ZM18.6527 23.9093C18.844 24.4241 19.1411 24.8689 19.4909 25.2386C19.9608 25.736 20.5301 26.0704 21.0648 26.2886C21.6456 26.5255 22.2041 26.6603 22.8286 26.788H20.9236C20.6328 26.3875 19.9428 26.0062 19.8767 25.9902C19.5327 25.9035 19.2021 25.9427 18.8677 26.0274C18.7464 26.0569 18.6212 25.9889 18.5481 25.9363C18.3022 25.7604 18.3696 25.3567 18.4678 25.2771C18.6655 25.1166 18.7701 24.9279 18.7958 24.745C18.835 24.4696 18.6976 24.2174 18.4614 24.0775C18.2791 23.969 18.0307 23.9221 17.7458 23.9812C18.0147 24.0807 18.4325 24.3547 18.3857 24.6872C18.3735 24.7726 18.317 24.8669 18.2066 24.9568C17.8966 25.2084 17.86 25.8791 18.2387 26.2193C17.7753 26.3682 17.2862 26.5062 16.7515 26.3984C16.075 26.2617 15.6732 25.5203 15.7644 24.865C15.808 25.0659 15.9178 25.2764 16.023 25.3997C16.6392 26.1243 17.5173 25.7411 17.5449 25.1006C17.5763 24.3695 16.7445 24.0152 16.4056 24.519C16.7336 24.3701 17.204 24.4985 17.222 24.8965C17.2413 25.322 16.6777 25.5268 16.2971 25.1763C16.1386 25.0306 15.8799 24.476 16.1899 24.1153C16.5095 23.7527 17.3837 23.5819 18.0551 23.7347C18.2682 23.7938 18.4633 23.8419 18.6418 23.8804L18.6527 23.9093ZM18.4659 26.58C18.2284 26.6564 17.9845 26.7354 17.7284 26.788H20.3934C20.1874 26.5884 19.8696 26.3092 19.4531 26.3092C19.0866 26.3098 18.8273 26.4639 18.4659 26.58ZM12.6649 27.3702L24.4358 27.3708V26.5473C23.6578 26.5473 21.8157 25.9767 20.688 25.3753C20.6867 25.3695 20.6867 25.3605 20.6861 25.331L20.6784 14.2379C21.4999 14.234 22.2856 14.2327 22.5179 14.2468C25.1887 14.4067 26.6386 14.6583 27.3305 17.3528C27.5712 17.3078 27.9981 17.2148 28.5263 17.1204C28.2343 14.7873 28.2394 10.6108 28.5263 8.31678C27.9981 8.22243 27.5712 8.12936 27.3305 8.08443C26.6386 10.7789 25.1887 11.0299 22.5179 11.1903C22.2862 11.2045 21.5044 11.2032 20.6854 11.1993L20.679 6.58891C20.7779 6.64026 20.8812 6.68262 20.9871 6.71407C21.6745 6.92139 22.3376 6.69739 22.8369 6.20123C23.7028 5.34115 23.6758 3.98171 22.8228 3.12291C22.7284 3.02792 22.6315 2.94319 22.532 2.86681L22.5545 2.86746C24.5879 2.94512 26.7073 3.02086 28.147 4.55167C29.0096 5.46952 29.8126 6.70766 30.251 7.23397C30.3671 7.37326 30.4615 7.48365 30.5789 7.62486C31.0488 7.35015 31.5282 7.08763 32 6.8142C31.9551 6.65117 31.93 6.53756 31.8896 6.39828L30.0173 0.00222881C22.8331 0.00222881 15.6488 -0.000980619 8.46522 0.000303084V0.000945073H7.84134V0.824441C8.85225 0.824441 11.6629 1.78914 12.3632 2.53048C12.8247 3.01893 13.1713 3.61265 13.2554 4.41945C13.2579 5.41497 13.2714 6.41112 13.2708 7.40599C13.0756 7.25644 12.8664 7.13449 12.6482 7.04013V7.03885C12.1482 6.82319 11.6013 6.75323 11.0641 6.82704C10.5307 6.90085 10.0069 7.11716 9.55059 7.47467C9.10707 7.82191 8.72773 8.30009 8.46586 8.90664C7.15455 11.942 9.58589 14.8187 11.0166 17.2956C12.4011 19.7437 12.446 21.6275 11.826 22.9202C11.4184 23.77 10.722 24.3663 9.93441 24.6981C9.14558 25.0306 8.26881 25.0967 7.50244 24.8855C6.54544 24.6217 5.76173 23.9157 5.5557 22.7437C5.53003 22.5505 5.51205 22.3624 5.23092 22.3945C4.97932 22.4247 4.99601 22.6211 5.0082 22.77C5.23413 24.2174 6.18728 25.0877 7.35674 25.4099C8.23864 25.6532 9.24442 25.5787 10.1449 25.1994C11.0474 24.8194 11.8465 24.1339 12.3157 23.1551C12.7355 22.279 12.8882 21.1705 12.6064 19.8419C12.6321 19.8971 12.6565 19.9529 12.6803 20.0088C13.1167 21.0479 13.1591 22.0312 12.9729 22.9022C12.7053 24.1545 11.9665 25.1802 11.2451 25.8143C10.6905 26.3015 9.94148 26.6076 9.15457 26.7315C8.32465 26.8624 7.45751 26.7912 6.73222 26.5178C6.0878 26.2752 5.41578 25.8368 4.8548 25.2668C4.3503 24.7546 3.93823 24.1384 3.72257 23.4677C3.47546 22.6994 3.3933 21.9568 3.4485 21.2783C3.51076 20.5158 3.7476 19.838 4.11924 19.3046C4.28868 19.0614 4.48573 18.8483 4.70717 18.6711L5.07046 19.9523C5.2566 20.6082 5.6584 21.0543 6.14749 21.3117C6.51719 21.5056 6.93504 21.5896 7.34647 21.5736C7.75661 21.5575 8.16162 21.4414 8.50758 21.2347C8.97292 20.9568 9.33043 20.5171 9.4511 19.9381C9.52684 19.5736 9.54674 19.2289 9.5185 18.9067C9.45367 18.1698 9.14109 17.5453 8.66868 17.0678C8.2027 16.5973 7.58203 16.2732 6.89204 16.13C6.51206 16.0511 6.11283 16.0267 5.7091 16.062C5.46712 16.0832 5.21359 16.1288 4.95236 16.1981C3.76044 16.5145 2.43887 17.3316 1.46197 18.5781C0.486996 19.8252 -0.148438 21.4998 0.0299973 23.5312C0.0710758 23.9991 0.156442 24.4876 0.291231 24.9966C0.370179 25.295 0.467098 25.5839 0.580706 25.8618C1.23154 27.4619 2.43694 28.7745 3.9254 29.5691C5.41642 30.3657 7.19114 30.6423 8.97806 30.168C9.27202 30.0903 9.56407 29.9928 9.8529 29.8753C10.1315 29.7617 10.3978 29.625 10.6514 29.4671C11.4697 28.9562 12.1475 28.2283 12.6649 27.3702ZM18.4229 3.29044C18.1418 6.32832 16.4543 6.98044 15.1334 7.49071C14.6411 7.68134 14.1925 7.854 13.8561 8.10689V5.61201C14.0468 5.11265 14.6341 4.88544 15.3292 4.61714C16.3998 4.20379 17.6886 3.70507 18.4223 2.13895L18.4229 3.29044ZM18.4229 5.5305V6.68712C18.1405 9.72179 16.4537 10.3746 15.1341 10.8842C14.6418 11.0742 14.1931 11.2475 13.8568 11.5004V8.99265C14.0474 8.49393 14.6353 8.26671 15.3298 7.99842C16.4011 7.58442 17.6899 7.08635 18.4229 5.5305ZM15.3298 11.3912C16.4004 10.9779 17.6899 10.4798 18.4223 8.92461V10.8656C18.369 10.8348 18.3035 10.8091 18.2239 10.7937C17.8401 10.7045 17.4588 10.8129 17.1585 11.0254C16.4678 11.5138 16.2599 12.5081 17.1604 12.992C17.0763 13.6146 16.971 14.0395 16.5481 14.5023C16.299 14.7751 16.0384 14.9086 15.6873 15.0107C15.2862 15.1275 14.8298 15.0588 14.4884 14.8162C14.3292 14.7026 14.1925 14.5479 14.0975 14.3521C13.9729 13.992 14.0949 13.709 14.2605 13.5761C14.5031 13.381 14.9235 13.4079 15.1315 13.6352C15.5314 14.0716 15.1206 14.5228 14.8991 14.5382C15.7181 14.6531 15.7438 13.7327 15.3773 13.3598C15.0307 13.0068 14.4133 12.9426 14.0115 13.2655C14.1379 12.8656 14.4351 12.6146 14.8523 12.5517C15.1552 12.5061 15.6033 12.7834 15.6739 13.1692C16.3587 12.6801 16.7753 13.2565 16.8324 13.6634C16.9171 13.3996 16.8741 13.0293 16.5879 12.8296C16.3369 12.6544 16.0904 12.6634 15.9056 12.7154C15.7015 12.2699 15.2329 12.0902 14.7939 12.1563C14.4043 12.2147 14.0795 12.4009 13.8574 12.6993V12.3861C14.0474 11.8868 14.6353 11.6602 15.3298 11.3912ZM17.3895 11.3508C17.6296 11.1814 17.9409 11.105 18.2425 11.2173C18.3125 11.2455 18.3728 11.2565 18.4229 11.2552V11.8322C18.3953 11.8219 18.3658 11.8136 18.335 11.8065C18.0455 11.7423 17.7586 11.829 17.5455 12.0466C17.4235 12.1711 17.3183 12.345 17.2457 12.5761C17.0429 12.433 16.9588 12.2533 16.9608 12.0735C16.9627 11.7853 17.1623 11.5113 17.3895 11.3508ZM18.025 12.2032C18.1456 12.1666 18.2727 12.1878 18.3818 12.2456L18.4223 12.2648L18.4216 17.2456C17.9614 16.9978 17.8273 16.6647 17.6283 16.3553C17.3087 15.9991 17.0538 15.7148 16.4685 15.9997C16.3086 15.752 16.1007 15.5376 15.8516 15.3791C16.0956 15.304 16.3074 15.2083 16.5006 15.0742C16.7291 15.4696 17.7143 15.8823 18.1508 15.0434C18.2451 14.8399 18.2766 14.2257 17.5853 13.6846C17.833 14.3893 17.9627 14.7391 17.5243 15.0145C17.2291 15.157 16.9396 15.1641 16.6084 14.9933C16.6893 14.9279 16.7676 14.8547 16.8433 14.7719C17.3632 14.2032 17.48 13.6692 17.575 12.9009L17.5859 12.845C17.6264 12.8662 17.6681 12.8932 17.7066 12.9259C18.0981 13.2725 18.059 13.5004 18.057 13.8893C18.2945 13.6056 18.3703 13.2802 18.2291 12.9644C18.1321 12.7481 17.9377 12.5665 17.7233 12.4676C17.7926 12.3495 17.8915 12.2436 18.025 12.2032ZM16.6552 16.3534C17.2823 16.0671 17.3305 17.1256 18.4216 17.3245V17.6987C18.1148 17.9028 17.6103 17.985 17.3093 17.8194C17.0339 17.6673 16.8632 17.3541 16.8324 17.0466C16.8093 16.8104 16.749 16.5742 16.6552 16.3534ZM15.3433 15.5716C15.9781 15.8014 16.369 16.4324 16.4344 17.0864C16.4787 17.5254 16.7252 17.9516 17.1167 18.1686C17.688 18.4176 18.1899 18.1378 18.421 17.8592V19.691C18.3485 19.3271 18.1687 18.9535 17.8099 18.6981C17.6482 18.5639 17.4653 18.467 17.2701 18.4048C17.1989 18.3817 17.1662 18.3746 17.1264 18.365C16.9961 18.3348 16.8619 18.3194 16.7265 18.3168C16.4909 18.2745 16.231 18.1987 16.0468 18.0562C15.8035 17.8682 15.5968 17.5922 15.464 17.2167C15.3523 16.899 15.5063 16.2417 15.3433 15.5716ZM22.2939 11.7674L25.9615 11.7648L25.9326 13.6615L21.7374 13.664C20.9152 13.6583 19.7124 13.6615 19.0063 13.6596V11.7776C19.8992 11.7757 21.5872 11.7809 22.2939 11.7674ZM19.0057 14.2468V22.7405C19.0468 23.657 19.4126 24.3104 19.9133 24.8413C19.9935 24.9266 20.102 25.0146 20.2323 25.1038L20.2246 14.2411C19.7702 14.243 19.3337 14.2456 19.0057 14.2468ZM16.0821 18.8431C16.6803 18.6172 17.4235 18.7161 17.7862 19.2905C18.1553 19.8759 18.1411 20.7527 17.5205 21.1622C17.4113 21.234 17.0757 21.3444 16.7547 21.322C16.5622 21.3085 16.3337 21.2129 16.1944 21.0601C16.0249 20.874 15.9338 20.657 15.9274 20.4073C15.9158 19.9484 16.2156 19.5871 16.6681 19.6692L16.8247 19.7141C16.3857 19.8746 16.1649 20.5036 16.5782 20.9189C16.2541 20.1782 17.041 19.6333 17.5725 20.1005C17.5603 19.915 17.5108 19.7764 17.4075 19.6448C17.2361 19.4272 16.9858 19.3072 16.7419 19.2623C16.0262 19.1313 15.5121 19.7109 15.5256 20.4292C15.5346 20.883 15.679 21.1217 15.9152 21.3804C16.1373 21.6236 16.4441 21.7199 16.731 21.7411C17.206 21.7764 17.593 21.6089 17.7483 21.5068C18.0705 21.2944 18.274 20.9921 18.3735 20.6564C18.3915 20.6095 18.4075 20.555 18.4203 20.494V22.4921C18.4223 22.5498 18.4235 22.6307 18.4268 22.7289L18.4242 22.7244C18.4158 22.7109 18.1078 22.4022 18.136 21.6602C18.1135 21.6801 18.0924 21.7013 18.0731 21.7231H18.0725C17.9235 21.8881 17.8581 22.0903 17.8651 22.3104C17.8793 22.7392 18.1649 23.1391 18.4717 23.4189C17.8966 23.2854 17.0506 23.0299 16.688 22.8066C17.1411 22.7527 17.4807 22.4375 17.7226 22.0717C17.6347 22.1018 17.2072 22.4651 16.5519 22.3996C16.1719 22.3996 15.8163 22.116 15.5744 21.8451C15.1944 21.3566 15.0359 20.8111 15.0795 20.1936C15.1212 19.6147 15.5371 19.0492 16.0821 18.8431ZM19.1033 3.75642C19.2868 3.44705 19.5057 3.17426 19.7342 2.98299C19.7926 2.93421 19.8517 2.88864 19.9114 2.84563L19.0063 2.8405V3.92972C19.0372 3.87131 19.0693 3.8129 19.1033 3.75642ZM26.7862 2.96373C25.9627 2.62804 25.0571 2.47272 24.136 2.38928C24.2894 2.35012 24.4261 2.26989 24.5353 2.16719C24.7021 2.01058 24.8093 1.79685 24.8235 1.5876C24.8369 1.38349 24.7939 1.20506 24.7054 1.05358C24.6116 0.892477 24.4711 0.7686 24.2959 0.683875C24.2092 0.641513 24.1142 0.608779 24.0122 0.585672H27.4326C27.4961 1.14152 27.4319 2.00031 26.7862 2.96373ZM27.0866 3.09595C27.706 2.10173 27.8735 1.14665 27.8735 1.14665C28.4364 1.8514 27.871 2.87644 27.871 2.87644C28.5565 2.34756 29.1951 2.64602 29.1951 2.64602C28.9448 3.19994 28.0911 3.31739 28.0911 3.31739C28.0911 3.31739 28.8729 3.24807 29.7381 3.85655C30.6033 4.46567 30.776 5.50868 30.5122 5.75386C30.3382 5.13512 30.1014 4.44577 29.4756 4.08697C28.8594 3.73331 28.3305 3.59082 27.887 3.56836C27.6328 3.38479 27.3652 3.22882 27.0866 3.09595ZM28.5295 2.35462C28.5295 2.35462 29.0032 1.52727 28.12 0.58503H29.5982L30.7169 4.41111C30.559 4.17106 30.3203 3.92459 29.9756 3.67811C29.6406 3.44833 29.4461 3.36617 29.2651 3.27054C29.2651 3.27054 29.7112 2.80648 29.8761 2.36168C29.8755 2.36168 28.9993 2.0844 28.5295 2.35462ZM15.1649 17.5408C15.3478 17.9535 15.654 18.261 15.9954 18.4349L15.9364 18.4561C15.2406 18.7193 14.7201 19.4253 14.6668 20.1654C14.602 21.0704 14.9158 21.8085 15.5461 22.4356C15.3414 22.9549 14.6604 22.8759 14.369 22.5139C14.2175 22.3258 14.1077 22.0338 14.2631 21.6885C14.3754 21.3727 14.3619 20.8111 13.8568 20.6236V18.1846C13.9306 18.2058 14.0423 18.2096 14.1982 18.1859C14.6065 18.0832 14.9383 17.9189 15.1649 17.5408ZM14.1854 22.9176C14.0712 22.8021 13.9274 22.6577 13.8568 22.3996V22.4921C13.8542 22.5685 13.8529 22.6853 13.8459 22.8284C13.8542 23.3303 13.8195 23.8329 13.7438 24.3265C13.8029 24.2379 13.8805 24.157 13.9794 24.0896C14.2233 23.9561 14.6835 23.9317 14.8863 24.3393C14.6193 24.2142 14.179 24.2726 14.0737 24.5653C13.9685 24.8862 14.1597 25.159 14.4755 25.2045C14.7258 25.2411 15.1751 25.0486 15.5153 24.3156C15.7984 23.7816 16.3337 23.4959 16.9094 23.3714C16.7143 23.2925 16.55 23.2122 16.437 23.1384C16.2425 23.0113 16.05 22.874 15.8671 22.7244C15.5249 23.3419 14.6828 23.3496 14.1854 22.9176ZM12.9819 26.788H16.6033C15.9056 26.6128 15.4145 25.9452 15.3433 25.2424C14.8825 25.7527 14.2207 25.7893 13.7727 25.3355C13.6944 25.2565 13.6385 25.1416 13.6116 25.0113C13.5917 25.0974 13.5699 25.1834 13.5474 25.2687C13.4062 25.7976 13.2168 26.3085 12.9819 26.788ZM25.5282 14.1146L26.2066 14.114C26.5366 14.1044 26.8485 14.1878 27.1232 14.3226C27.3921 14.4542 27.6258 14.6339 27.8087 14.8232C27.828 15.4792 27.8562 16.0986 27.8947 16.6429C27.8331 16.6467 27.8036 16.6512 27.7445 16.6602C27.2715 15.1961 26.5911 14.4869 25.5282 14.1146ZM25.559 11.3117C26.604 10.9368 27.2753 10.2276 27.7452 8.77634C27.8042 8.78533 27.8337 8.78982 27.8954 8.79367C27.8607 9.28726 27.8337 9.85145 27.8145 10.4548C27.681 10.6846 27.5083 10.8701 27.2972 11.0081C27.0147 11.1929 26.6598 11.2963 26.2298 11.311L25.559 11.3117ZM18.3337 0.58503C17.887 3.04525 16.3542 3.63768 15.1341 4.10944C14.6392 4.30071 14.1893 4.47465 13.8529 4.72883C13.8484 4.56194 13.8388 4.32574 13.799 4.06579C13.7971 3.26091 13.7958 2.51957 13.7971 2.50417C13.8548 1.81674 14.5198 1.56 15.3298 1.24678C15.7855 1.07091 16.2823 0.878998 16.7682 0.584388L18.3337 0.58503ZM13.7252 1.46629C13.4627 1.70635 13.2907 2.01636 13.2534 2.45988C13.2528 2.46566 13.2528 2.56386 13.2528 2.72368C13.1141 2.5093 12.9569 2.31225 12.7868 2.13254C12.317 1.6351 11.7476 1.3007 11.213 1.08247C10.6321 0.845622 10.0737 0.710833 9.44918 0.583105C11.4755 0.583105 13.5018 0.583747 15.5282 0.584388C15.3946 0.638304 15.2618 0.689652 15.1334 0.739716C14.774 0.878356 14.4383 1.00865 14.152 1.16719L14.0699 1.1229C13.661 0.908524 13.134 0.761539 12.6809 0.909165C12.4485 0.984904 12.2618 1.1306 12.1456 1.34819V1.34883C12.1302 1.37772 12.1161 1.40724 12.1039 1.43869C12.869 1.12804 13.3086 1.33343 13.3253 1.33664C13.4543 1.36167 13.5885 1.40532 13.7252 1.46629ZM13.272 9.33347C13.272 12.8681 13.2605 16.3701 13.272 19.9105L13.2637 19.8907C13.1122 19.5177 12.9299 19.1577 12.7156 18.8136C12.4299 18.356 12.0917 17.8521 11.7374 17.3258C11.498 16.9696 11.2515 16.6031 11.0069 16.2282C10.8362 15.8573 10.7348 15.4317 10.7078 15.0145C10.6841 14.6474 10.7188 14.2899 10.8163 13.9837C10.9068 13.6987 11.05 13.4631 11.2489 13.3174C11.3779 13.2225 11.5346 13.1634 11.7194 13.1518C11.8824 13.1416 12.0243 13.1551 12.145 13.1884C12.3227 13.2379 12.4569 13.3335 12.55 13.4612C12.6469 13.5954 12.7014 13.768 12.7136 13.9638C12.7252 14.1429 12.7021 14.3399 12.6456 14.544C12.5975 14.7173 12.4492 14.8617 12.2733 14.9413C12.1796 14.9843 12.0795 15.0068 11.9851 15.0049C11.9023 15.0029 11.8247 14.9811 11.7605 14.9349C11.6629 14.8643 11.5885 14.7289 11.5641 14.5106C11.4928 14.1095 10.9826 14.1698 11.0224 14.5703C11.066 14.9593 11.2265 15.2205 11.4428 15.3765C11.6007 15.4908 11.7849 15.5447 11.9742 15.5485C12.1514 15.5524 12.3324 15.5119 12.4993 15.4356C12.8106 15.2937 13.0769 15.0241 13.17 14.6884C13.2432 14.4253 13.2727 14.1679 13.2573 13.9291C13.238 13.6307 13.1495 13.3598 12.9909 13.1409C12.8279 12.9156 12.5942 12.7481 12.29 12.6634C12.1116 12.6133 11.91 12.5934 11.6854 12.6076C11.3908 12.6268 11.1385 12.7231 10.9274 12.8778C10.6289 13.0966 10.4203 13.4285 10.2964 13.8194C10.2232 14.0492 10.1796 14.3014 10.1636 14.5633C9.94276 14.0017 9.78936 13.4606 9.69436 12.9535C9.41837 11.4824 9.62312 10.3238 10.0544 9.81807L10.0769 9.79111C10.3266 9.50998 10.6546 9.32962 10.9992 9.28918C11.3388 9.24939 11.6989 9.34695 12.0198 9.61974H12.0211L12.0467 9.64284C12.1591 9.74233 12.2496 9.87648 12.3131 10.0292C12.3966 10.2301 12.4299 10.4599 12.4017 10.6859C12.3741 10.9067 12.2881 11.1217 12.1315 11.2982C12.0198 11.424 11.8696 11.5331 11.6764 11.6127C11.2425 11.8553 11.5095 12.3232 11.8991 12.1493C12.1758 12.0344 12.3966 11.8726 12.566 11.682C12.8067 11.4111 12.9383 11.0864 12.9794 10.7558C13.0198 10.4304 12.971 10.0979 12.8497 9.80587C12.7541 9.57545 12.6122 9.36877 12.4312 9.20767L12.3972 9.17814L12.3978 9.1775C11.9434 8.79046 11.4261 8.65247 10.9338 8.71023C10.4466 8.76736 9.98769 9.01704 9.64301 9.406L9.61349 9.43938C9.14686 9.98688 8.8837 11.0896 9.03582 12.4676C8.65007 11.3072 8.55572 10.1692 9.00245 9.13514C9.22453 8.62102 9.5416 8.21922 9.91002 7.93103C10.2836 7.63898 10.7111 7.46183 11.1462 7.4015C11.5782 7.34181 12.0179 7.39829 12.4209 7.57223L12.4216 7.57095C12.7348 7.70638 13.0262 7.91434 13.2733 8.19547V9.05683C13.272 9.12487 13.2695 9.17172 13.272 9.33347ZM5.76173 16.6422C6.11219 16.6114 6.45429 16.632 6.7765 16.6987C7.3561 16.8187 7.87407 17.0883 8.25982 17.4773C8.63852 17.8598 8.88948 18.3624 8.94147 18.9568C8.96522 19.2276 8.94853 19.5158 8.88563 19.82C8.8009 20.227 8.54609 20.5383 8.21297 20.7373C7.95109 20.8939 7.64172 20.9818 7.32721 20.994C7.27715 20.9959 7.22644 20.9959 7.17638 20.994C7.20719 20.9856 7.23799 20.9773 7.26816 20.967C7.57882 20.8669 7.85289 20.6744 8.06213 20.426C8.31245 20.1288 8.47099 19.7488 8.48704 19.3489C8.50694 18.8573 8.30026 18.4465 7.99795 18.1378C7.6353 17.7668 7.12631 17.5428 6.71617 17.5094C6.24505 17.4709 5.7996 17.5248 5.38882 17.657C4.67893 17.8855 4.08201 18.3476 3.64555 18.9734C3.44208 19.2655 3.27392 19.5935 3.1449 19.9503C2.84131 19.9503 2.55954 19.9927 2.30151 20.071C1.67057 20.261 1.1802 20.6602 0.829745 21.1686L0.784815 21.2353C1.01203 20.3496 1.41768 19.5794 1.92282 18.9343C2.81756 17.7931 4.02103 17.0466 5.10384 16.7591C5.32784 16.7006 5.54864 16.6609 5.76173 16.6422ZM15.0256 16.3656C15.0256 16.5036 15.0204 16.6416 15.0198 16.779C14.9383 17.1596 14.8189 17.3945 14.6507 17.5434C14.5262 17.6538 14.3651 17.7257 14.1674 17.7809C14.041 17.795 13.9325 17.8399 13.8568 17.8951V14.7494C13.8837 14.7834 13.912 14.8162 13.9421 14.8463C14.1655 15.1191 14.4704 15.3091 14.8144 15.4015C15.2611 16.2552 14.378 15.4214 14.1783 16.2013C14.6681 15.9234 14.8946 16.5768 15.0256 16.3656ZM10.8433 26.788C11.1295 26.6378 11.3959 26.4587 11.6328 26.2508C12.2085 25.745 12.7939 25.012 13.1873 24.1205C13.1405 24.4594 13.0731 24.7938 12.9858 25.1211C12.8292 25.709 12.609 26.2713 12.3298 26.788H10.8433ZM4.46648 25.6975C4.96263 26.1956 5.53773 26.6025 6.11347 26.8817C6.15326 27.2989 6.26174 27.6641 6.42348 27.9806C6.46007 28.0518 6.49858 28.1198 6.5403 28.1859C5.79575 28.046 5.09357 27.7251 4.47482 27.2694C4.33297 27.1648 4.19497 27.0531 4.06275 26.935C4.0666 26.8182 4.07944 26.6994 4.10319 26.58C4.15967 26.2912 4.27713 25.9953 4.46648 25.6975ZM6.66931 18.0896C6.95751 18.1134 7.31823 18.2745 7.58074 18.5428C7.781 18.7475 7.91836 19.0145 7.90552 19.3265C7.89461 19.5954 7.78742 19.8515 7.61733 20.0537C7.47676 20.2206 7.29448 20.3489 7.08973 20.415C6.88883 20.4799 6.66418 20.4844 6.4344 20.4054C6.15455 20.3098 5.86315 20.0896 5.58972 19.7064L4.80088 18.6018C5.03259 18.4311 5.28869 18.2982 5.56469 18.2096C5.9023 18.1012 6.27329 18.0575 6.66931 18.0896ZM3.10062 23.4086C3.12308 23.4876 3.14683 23.5665 3.1725 23.6455C3.37405 24.2706 3.72065 24.8496 4.15004 25.3535C3.88945 25.7341 3.73092 26.1173 3.6571 26.4934L3.65004 26.53C3.22642 26.0704 2.86891 25.5389 2.59805 24.9581C2.45941 24.6603 2.34387 24.3502 2.25401 24.0306C2.31371 23.9606 2.37853 23.8932 2.44914 23.8297C2.62886 23.6667 2.84452 23.5242 3.10062 23.4086ZM1.8811 24.6513C1.94785 24.8342 2.02166 25.0133 2.10382 25.1885C2.47353 25.9818 2.99407 26.6924 3.62052 27.2694C3.65774 27.6346 3.76943 27.9838 3.93823 28.3073C4.13207 28.6789 4.40165 29.0171 4.71873 29.3066C4.54157 29.2315 4.36827 29.1481 4.19947 29.0576C3.41256 28.6372 2.71101 28.0595 2.14297 27.3637C2.04477 27.1827 1.96069 26.9908 1.89329 26.7925C1.7155 26.2726 1.65067 25.7116 1.7354 25.1885C1.76364 25.003 1.81242 24.8233 1.8811 24.6513ZM2.87083 21.2334C2.82655 21.7777 2.86249 22.3592 2.98958 22.9619C2.6571 23.1025 2.37725 23.2828 2.1449 23.494L2.13142 23.5062C1.95427 22.555 2.00498 21.5383 2.35029 20.5325C2.37661 20.5235 2.40292 20.5152 2.42988 20.5068C2.60767 20.4529 2.79959 20.4195 3.00498 20.4086C2.93951 20.6718 2.89394 20.9478 2.87083 21.2334ZM1.67121 20.9118C1.40741 21.9805 1.43629 23.046 1.68983 24.0332C1.4793 24.3637 1.34836 24.7328 1.28674 25.1166C1.24246 25.3913 1.23411 25.6737 1.25658 25.9555C1.20844 25.8528 1.16287 25.7482 1.11986 25.6429C1.0146 25.3836 0.924739 25.1185 0.853493 24.8477C0.809847 24.684 0.771978 24.5223 0.739244 24.3618C0.641682 23.847 0.615366 23.3002 0.657087 22.9414C0.719988 22.3958 0.901632 21.8618 1.20202 21.426C1.33424 21.2334 1.49085 21.0595 1.67121 20.9118ZM6.59935 27.0871C7.71938 27.4876 8.99795 27.3702 10.1674 27.3708C9.16612 28.0422 8.13787 28.3079 7.16547 28.2604C7.03453 28.1179 6.92028 27.9568 6.82721 27.7752C6.72323 27.5717 6.64557 27.3432 6.59935 27.0871ZM7.88177 28.7854C8.93954 28.6821 10.0301 28.2405 11.0711 27.3702H11.9755C11.5551 27.9895 11.039 28.5184 10.437 28.9132C10.1526 29.0056 9.84905 29.0634 9.5416 29.0833C8.99346 29.1192 8.43569 29.0358 7.95238 28.8182L7.88177 28.7854ZM7.76624 29.2328C8.16868 29.4138 8.61348 29.5139 9.06406 29.5396C8.98576 29.5634 8.90809 29.5858 8.83043 29.6064C8.01078 29.8239 7.19371 29.8689 6.41065 29.7681C6.0679 29.6635 5.73157 29.4992 5.42476 29.2886C4.9729 28.9786 4.5865 28.5678 4.34132 28.0974C4.2797 27.9793 4.22707 27.8567 4.1847 27.7315C5.03195 28.347 6.02361 28.7347 7.07496 28.7996C7.28292 28.9761 7.51656 29.1198 7.76624 29.2328ZM26.4762 13.6705L26.5057 11.7456C26.9095 11.6993 27.2561 11.5787 27.5462 11.3887C27.6348 11.3309 27.7176 11.2661 27.7952 11.1961C27.7753 12.1756 27.7747 13.2186 27.7939 14.2077C27.6502 14.0992 27.4923 13.9997 27.3222 13.9163C27.0648 13.7898 26.7792 13.7 26.4762 13.6705ZM30.1906 6.21921C29.7432 5.6088 29.1643 4.80264 28.5622 4.16143C28.5147 4.11072 28.4666 4.06194 28.4178 4.01445C28.7086 4.08954 28.9993 4.22112 29.2856 4.41239C30.1085 4.9631 30.2298 5.7038 30.1906 6.21921ZM30.4031 6.50611C30.6534 6.2314 30.9512 5.80136 30.975 5.29494L31.3376 6.53628L30.7253 6.90278C30.7124 6.89187 30.6964 6.8771 30.6771 6.85721C30.5963 6.76093 30.5045 6.64219 30.4031 6.50611ZM23.5763 2.34691C23.2419 2.32573 22.9069 2.31161 22.5757 2.29877C22.301 2.28851 21.6283 2.28401 20.9088 2.28337C21.1341 2.21469 21.3632 2.11585 21.5853 1.98619C21.8132 1.85333 22.0147 1.7057 22.2342 1.56385C22.3087 1.51572 22.3818 1.47014 22.4525 1.42971C22.8857 1.17746 23.3433 1.06642 23.7079 1.09081C23.8433 1.0998 23.9627 1.12804 24.0577 1.17425C24.4473 1.36424 24.2772 1.86296 23.9332 1.87259C23.8106 1.87579 23.6585 1.81546 23.6546 1.67425C23.6527 1.60557 23.6771 1.517 23.7394 1.4066L23.2657 1.13959C23.1514 1.34242 23.1065 1.52663 23.111 1.68773C23.1148 1.83343 23.1578 1.95859 23.2265 2.06257C23.2939 2.16527 23.3851 2.2455 23.4878 2.30327C23.516 2.31996 23.5462 2.33408 23.5763 2.34691ZM21.3119 1.51572C20.8786 1.76796 20.421 1.879 20.0564 1.85461C19.921 1.84563 19.8016 1.81739 19.706 1.77117C19.6257 1.73202 19.5648 1.68131 19.5288 1.61905C19.3934 1.3867 19.568 1.08054 19.8305 1.07284C20.1521 1.06385 20.1508 1.31353 20.0243 1.53818L20.498 1.80519C20.6123 1.60172 20.6572 1.41815 20.6527 1.25705C20.6488 1.11135 20.6058 0.986188 20.5372 0.882208C20.4698 0.779511 20.3786 0.69928 20.2759 0.641513C20.2368 0.61969 20.1957 0.600435 20.1533 0.58503H23.1668C22.8453 0.645364 22.5038 0.769242 22.1784 0.95923C22.0879 1.01186 22.0083 1.06064 21.937 1.10686C21.7272 1.24293 21.5308 1.38863 21.3119 1.51572ZM19.516 2.28401L19.0057 2.2853V1.78594C19.0211 1.82252 19.0384 1.85782 19.0583 1.89184C19.152 2.05295 19.2926 2.17682 19.4678 2.26155L19.516 2.28401ZM19.2291 0.778228C19.1328 0.868729 19.0564 0.977844 19.0063 1.09466V0.58503H19.5372C19.4203 0.628676 19.3157 0.696071 19.2291 0.778228ZM13.8568 20.6898C14.0654 21.0973 14.0005 21.3168 13.9434 21.4516C13.903 21.5287 13.8754 21.6005 13.8568 21.6699V20.6898Z" fill="white"/>
</svg>
