<svg width="139" height="48" viewBox="0 0 139 48" fill="none" xmlns="http://www.w3.org/2000/svg">
<g clip-path="url(#clip0)">
<path fill-rule="evenodd" clip-rule="evenodd" d="M23.0842 13.6755C23.1295 13.5211 23.1754 13.3559 23.1988 13.161C23.2487 12.4788 23.6018 11.6728 24.0041 11.1224C24.1483 10.926 24.2933 10.7693 24.4212 10.6625C25.3301 9.90083 26.3826 9.94526 27.2198 10.7872C28.1069 11.6806 27.976 13.0838 26.9267 13.7869C26.6351 13.9826 26.3155 14.0551 26.0123 14.0348C25.214 13.9803 24.5373 13.2818 24.7984 12.4523C24.9045 12.1156 25.1267 11.8263 25.3933 11.5987C25.504 11.5052 25.6685 11.4607 25.833 11.4716C25.9873 11.4826 26.1393 11.5434 26.2468 11.6595C26.3117 11.7297 26.3569 11.8084 26.3826 11.8895C26.4877 12.2146 26.3053 12.5716 25.9819 12.6776L25.9453 12.6901C25.7379 12.7556 25.4884 12.8351 25.5679 13.1329L25.5741 13.1547C25.6069 13.2529 25.6778 13.3286 25.7838 13.3675C25.9156 13.4167 26.0692 13.3933 26.2002 13.3488C26.3942 13.2834 26.5619 13.1812 26.6998 13.0549C26.8893 12.8803 27.021 12.6581 27.085 12.418C27.2034 11.9713 27.0772 11.5169 26.7669 11.1801C26.4894 10.8792 26.1253 10.7022 25.7089 10.7396C25.2873 10.7778 24.9161 11.0234 24.6379 11.3313C24.0798 11.9472 23.838 12.8008 24.2044 13.578C24.2949 13.769 24.4181 13.9429 24.5654 14.0941L24.5739 20.0975C24.0182 20.0944 23.4841 20.0913 23.0842 20.0906V13.7449V13.6755ZM22.6547 35.5376C22.887 36.1627 23.248 36.703 23.6729 37.152C24.2434 37.7562 24.9349 38.1623 25.5843 38.4275C26.2898 38.715 26.968 38.8788 27.7266 39.0339H25.4128C25.0597 38.5474 24.2215 38.0844 24.1413 38.0649C23.7235 37.9597 23.3219 38.0073 22.9158 38.1101C22.7685 38.146 22.6164 38.0634 22.5277 37.9994C22.229 37.7857 22.3108 37.2954 22.4302 37.1988C22.6703 37.0038 22.7973 36.7748 22.8285 36.5525C22.8761 36.2181 22.7093 35.9117 22.4223 35.7418C22.201 35.6101 21.8992 35.5531 21.5532 35.6248C21.8797 35.7457 22.3873 36.0786 22.3303 36.4823C22.3156 36.586 22.247 36.7006 22.1129 36.8098C21.7363 37.1154 21.6919 37.93 22.1519 38.3431C21.5891 38.524 20.9951 38.6917 20.3456 38.5607C19.5239 38.3947 19.0359 37.4942 19.1467 36.6983C19.1997 36.9423 19.3329 37.1981 19.4608 37.3477C20.2092 38.2278 21.2757 37.7624 21.3092 36.9844C21.3473 36.0964 20.3371 35.6662 19.9255 36.2781C20.3238 36.0973 20.8952 36.2531 20.9171 36.7365C20.9404 37.2533 20.256 37.502 19.7937 37.0764C19.6011 36.8994 19.287 36.226 19.6635 35.7878C20.0517 35.3473 21.1135 35.14 21.9289 35.3255C22.1877 35.3973 22.4247 35.4557 22.6414 35.5024L22.6547 35.5376ZM22.4278 38.7813C22.1394 38.8741 21.8431 38.9699 21.5321 39.0339H24.7689C24.5185 38.7914 24.1328 38.4523 23.6268 38.4523C23.1816 38.4532 22.8668 38.6401 22.4278 38.7813ZM15.3822 39.7409L29.6785 39.7418V38.7416C28.7337 38.7416 26.4963 38.0485 25.1267 37.3181C25.1251 37.311 25.1251 37.3001 25.1244 37.2642L25.1149 23.7911C26.1129 23.7864 27.067 23.7848 27.3492 23.8019C30.593 23.9961 32.3541 24.3017 33.1944 27.5743C33.4867 27.5198 34.0051 27.4067 34.6467 27.292C34.2919 24.4584 34.2983 19.3858 34.6467 16.5996C34.0051 16.485 33.4867 16.372 33.1944 16.3175C32.3541 19.59 30.593 19.8949 27.3492 20.0897C27.0677 20.1068 26.1183 20.1053 25.1235 20.1006L25.1158 14.501C25.2357 14.5634 25.3613 14.6148 25.4899 14.653C26.3248 14.9048 27.1302 14.6328 27.7366 14.0302C28.7883 12.9856 28.7555 11.3344 27.7195 10.2914C27.6049 10.176 27.4872 10.0731 27.3664 9.98034L27.3937 9.98112C29.8632 10.0754 32.4374 10.1674 34.186 12.0267C35.2338 13.1415 36.209 14.6452 36.7414 15.2845C36.8825 15.4536 36.9971 15.5877 37.1397 15.7592C37.7104 15.4256 38.2928 15.1067 38.8657 14.7747C38.8112 14.5767 38.7808 14.4387 38.7316 14.2695L36.4577 6.50115C27.732 6.50115 19.0064 6.49725 10.2815 6.49881V6.4996H9.52372V7.49977C10.7515 7.49977 14.1652 8.67146 15.0157 9.57185C15.5762 10.1651 15.9971 10.8862 16.0993 11.8661C16.1024 13.0752 16.1188 14.2851 16.1181 15.4934C15.8811 15.3118 15.6269 15.1637 15.3619 15.0491V15.0475C14.7546 14.7856 14.0904 14.7006 13.4379 14.7902C12.7901 14.8798 12.154 15.1426 11.5997 15.5768C11.061 15.9986 10.6003 16.5793 10.2822 17.316C8.68958 21.0026 11.6426 24.4965 13.3802 27.5049C15.0617 30.4782 15.1163 32.7663 14.3632 34.3362C13.8682 35.3683 13.0224 36.0926 12.0659 36.4956C11.1078 36.8994 10.0429 36.9798 9.11211 36.7232C7.94978 36.4029 6.99793 35.5454 6.74769 34.1219C6.71651 33.8872 6.69469 33.6588 6.35324 33.6978C6.04765 33.7344 6.06791 33.9729 6.08272 34.1538C6.35713 35.9117 7.51478 36.9688 8.93515 37.3602C10.0063 37.6556 11.2278 37.5652 12.3216 37.1044C13.4176 36.6429 14.3882 35.8103 14.958 34.6216C15.4678 33.5574 15.6535 32.2111 15.3113 30.5974C15.3424 30.6645 15.372 30.7322 15.4009 30.8002C15.931 32.0622 15.9824 33.2566 15.7563 34.3144C15.4312 35.8353 14.534 37.0811 13.6577 37.8513C12.9842 38.443 12.0745 38.8149 11.1187 38.9654C10.1107 39.1243 9.05754 39.0377 8.17663 38.7057C7.39395 38.4111 6.57774 37.8786 5.89641 37.1862C5.28368 36.5642 4.78319 35.8158 4.52126 35.0011C4.22113 34.068 4.12134 33.1661 4.18839 32.3421C4.26401 31.4161 4.55167 30.5928 5.00303 29.9449C5.20884 29.6495 5.44816 29.3908 5.71711 29.1756L6.15834 30.7315C6.38441 31.5283 6.87242 32.07 7.46645 32.3827C7.91548 32.6181 8.42298 32.7202 8.92267 32.7007C9.42082 32.6812 9.91272 32.5401 10.3329 32.2891C10.8981 31.9516 11.3323 31.4175 11.4789 30.7144C11.5709 30.2716 11.595 29.853 11.5607 29.4616C11.482 28.5666 11.1023 27.8082 10.5286 27.2282C9.96261 26.6568 9.20878 26.2631 8.37074 26.0892C7.90925 25.9934 7.42436 25.9637 6.93401 26.0065C6.64011 26.0324 6.33219 26.0876 6.0149 26.1718C4.56725 26.5562 2.96213 27.5486 1.77565 29.0624C0.591483 30.5772 -0.180285 32.611 0.0364332 35.0784C0.0863251 35.6467 0.190007 36.24 0.353716 36.8581C0.449602 37.2207 0.567316 37.5714 0.705299 37.9089C1.49577 39.8524 2.9598 41.4466 4.7676 42.4118C6.57853 43.3791 8.73402 43.7151 10.9043 43.1391C11.2614 43.0448 11.6161 42.9263 11.9669 42.7836C12.3052 42.6455 12.6287 42.4795 12.9367 42.2878C13.9306 41.6672 14.7538 40.7833 15.3822 39.7409ZM22.3755 10.4949C22.0342 14.1845 19.9847 14.9766 18.3803 15.5963C17.7824 15.8279 17.2375 16.0376 16.8289 16.3446V13.3145C17.0605 12.708 17.7739 12.4321 18.6181 12.1062C19.9184 11.6042 21.4838 10.9985 22.3748 9.09632L22.3755 10.4949ZM22.3755 13.2155V14.6203C22.0326 18.3061 19.984 19.099 18.381 19.7178C17.7832 19.9486 17.2382 20.1591 16.8298 20.4663V17.4204C17.0613 16.8148 17.7754 16.5389 18.6188 16.2129C19.92 15.7102 21.4854 15.1052 22.3755 13.2155ZM18.6188 20.3337C19.9193 19.8317 21.4854 19.2267 22.3748 17.3379V19.6952C22.3101 19.6578 22.2306 19.6267 22.1339 19.6079C21.6678 19.4997 21.2046 19.6314 20.8398 19.8894C20.0011 20.4825 19.7485 21.6902 20.8422 22.2779C20.7401 23.0341 20.6122 23.5503 20.0986 24.1122C19.7961 24.4437 19.4796 24.6057 19.053 24.7297C18.5658 24.8715 18.0117 24.7882 17.5968 24.4934C17.4035 24.3555 17.2375 24.1676 17.1221 23.9298C16.9709 23.4925 17.119 23.1487 17.3202 22.9874C17.6148 22.7504 18.1254 22.7831 18.3779 23.059C18.8637 23.5891 18.3648 24.1372 18.0959 24.1559C19.0906 24.2955 19.1217 23.1776 18.6766 22.7247C18.2557 22.2959 17.5057 22.2179 17.0177 22.6101C17.1713 22.1244 17.5321 21.8196 18.0388 21.7431C18.4069 21.6879 18.951 22.0246 19.0368 22.4931C19.8685 21.8991 20.3744 22.5991 20.4439 23.0934C20.5468 22.773 20.4945 22.3232 20.1469 22.0807C19.842 21.8679 19.5426 21.8788 19.3182 21.9419C19.0702 21.4009 18.5011 21.1826 17.968 21.263C17.4947 21.3338 17.1003 21.56 16.8306 21.9225V21.5421C17.0613 20.9355 17.7754 20.6604 18.6188 20.3337ZM21.1204 20.2846C21.412 20.0788 21.7901 19.986 22.1565 20.1225C22.2416 20.1567 22.3148 20.17 22.3755 20.1684V20.8693C22.342 20.8568 22.3063 20.8466 22.2688 20.838C21.9172 20.7602 21.5687 20.8654 21.3099 21.1296C21.1618 21.2808 21.0339 21.4922 20.9459 21.7728C20.6995 21.599 20.5975 21.3807 20.5997 21.1624C20.602 20.8123 20.8446 20.4794 21.1204 20.2846ZM21.8923 21.3198C22.0388 21.2755 22.1931 21.3012 22.3258 21.3714L22.3748 21.3947L22.3741 27.4442C21.815 27.1432 21.6521 26.7386 21.4105 26.3629C21.0222 25.9302 20.7128 25.5849 20.0018 25.9309C19.8078 25.6301 19.5552 25.3697 19.2527 25.1771C19.5488 25.086 19.8061 24.9697 20.0408 24.8068C20.3183 25.2871 21.5149 25.7884 22.045 24.7695C22.1596 24.5224 22.1979 23.7762 21.3582 23.1191C21.6592 23.975 21.8167 24.3999 21.2842 24.7343C20.9256 24.9074 20.574 24.916 20.1718 24.7086C20.27 24.6292 20.3651 24.5402 20.4572 24.4397C21.0885 23.7491 21.2305 23.1004 21.3458 22.1673L21.3591 22.0995C21.4081 22.1252 21.4588 22.158 21.5056 22.1977C21.9812 22.6186 21.9336 22.8954 21.9313 23.3677C22.2197 23.0231 22.3117 22.6279 22.1401 22.2444C22.0224 21.9818 21.7862 21.7611 21.5259 21.641C21.61 21.4976 21.7301 21.369 21.8923 21.3198ZM20.2287 26.3605C20.9903 26.0129 21.0488 27.2984 22.3741 27.54V27.9945C22.0014 28.2424 21.3887 28.3421 21.0231 28.141C20.6886 27.9562 20.4812 27.5759 20.4439 27.2024C20.4158 26.9156 20.3425 26.6288 20.2287 26.3605ZM18.6352 25.411C19.4062 25.69 19.881 26.4564 19.9605 27.2508C20.0142 27.784 20.3136 28.3017 20.7892 28.5652C21.483 28.8676 22.0926 28.5276 22.3733 28.1894V30.4143C22.2851 29.9722 22.0669 29.5185 21.6312 29.2082C21.4347 29.0453 21.2125 28.9276 20.9756 28.852C20.889 28.8239 20.8493 28.8153 20.8008 28.8037C20.6427 28.767 20.4798 28.7483 20.3152 28.7452C20.0291 28.6938 19.7134 28.6018 19.4896 28.4287C19.1942 28.2004 18.9432 27.8651 18.7817 27.409C18.6462 27.0231 18.8333 26.2248 18.6352 25.411ZM27.0772 20.7905L31.5316 20.7874L31.4964 23.0911L26.4013 23.0942C25.4026 23.0871 23.9418 23.0911 23.0842 23.0887V20.803C24.1685 20.8007 26.2188 20.8069 27.0772 20.7905ZM23.0834 23.8019V34.1179C23.1333 35.2312 23.5777 36.0248 24.1858 36.6695C24.2831 36.7732 24.4149 36.8799 24.5732 36.9883L24.5639 23.795C24.012 23.7973 23.4817 23.8005 23.0834 23.8019ZM19.5325 29.3844C20.2591 29.11 21.1618 29.2301 21.6022 29.9278C22.0505 30.6388 22.0333 31.7036 21.2795 32.201C21.147 32.2883 20.7393 32.4224 20.3495 32.3951C20.1157 32.3787 19.8382 32.2626 19.6689 32.0771C19.4632 31.851 19.3524 31.5875 19.3446 31.2843C19.3306 30.7269 19.6946 30.288 20.2443 30.3877L20.4344 30.4423C19.9012 30.6373 19.633 31.4011 20.1352 31.9055C19.7414 31.0059 20.6972 30.3441 21.3427 30.9117C21.3278 30.6863 21.2678 30.5179 21.1423 30.3581C20.9342 30.0939 20.6301 29.9481 20.334 29.8935C19.4647 29.7344 18.8402 30.4385 18.8566 31.3108C18.8675 31.8619 19.043 32.1519 19.3298 32.466C19.5995 32.7615 19.9721 32.8785 20.3207 32.9042C20.8976 32.947 21.3677 32.7435 21.5563 32.6196C21.9477 32.3616 22.1948 31.9944 22.3156 31.5866C22.3374 31.5298 22.3569 31.4636 22.3724 31.3895V33.8162C22.3748 33.8864 22.3764 33.9847 22.3803 34.1039L22.3772 34.0984C22.367 34.0821 21.9929 33.7071 22.0271 32.806C21.9998 32.8301 21.9741 32.8559 21.9508 32.8823H21.9499C21.7691 33.0828 21.6896 33.3282 21.6982 33.5957C21.7153 34.1165 22.0623 34.6021 22.4349 34.9419C21.7363 34.7798 20.7088 34.4696 20.2684 34.1983C20.8189 34.1327 21.2312 33.75 21.5251 33.3056C21.4183 33.3423 20.8991 33.7836 20.1031 33.704C19.6416 33.704 19.2097 33.3594 18.9158 33.0305C18.4545 32.4372 18.2619 31.7747 18.3149 31.0247C18.3655 30.3215 18.8706 29.6347 19.5325 29.3844ZM23.2019 11.0608C23.4249 10.6851 23.6907 10.3538 23.9682 10.1214C24.0391 10.0622 24.1109 10.0068 24.1834 9.95462L23.0842 9.94838V11.2713C23.1217 11.2004 23.1607 11.1294 23.2019 11.0608ZM32.5334 10.0981C31.5332 9.69034 30.4332 9.50169 29.3146 9.40035C29.5008 9.35279 29.6668 9.25534 29.7994 9.13062C30.0021 8.9404 30.1322 8.68081 30.1495 8.42667C30.1657 8.17877 30.1136 7.96205 30.0059 7.77808C29.8922 7.5824 29.7215 7.43195 29.5086 7.32905C29.4033 7.2776 29.288 7.23784 29.1641 7.20978H33.3184C33.3954 7.88488 33.3176 8.92794 32.5334 10.0981ZM32.8982 10.2586C33.6504 9.0511 33.8539 7.89111 33.8539 7.89111C34.5375 8.74708 33.8508 9.99203 33.8508 9.99203C34.6833 9.34968 35.459 9.71217 35.459 9.71217C35.1549 10.3849 34.1181 10.5276 34.1181 10.5276C34.1181 10.5276 35.0676 10.4434 36.1185 11.1824C37.1694 11.9222 37.379 13.189 37.0587 13.4868C36.8475 12.7353 36.5598 11.8981 35.7997 11.4623C35.0512 11.0327 34.4089 10.8597 33.8703 10.8324C33.5616 10.6094 33.2365 10.42 32.8982 10.2586ZM34.6505 9.35826C34.6505 9.35826 35.2259 8.3534 34.1533 7.20899H35.9486L37.3074 11.856C37.1155 11.5644 36.8256 11.2651 36.4069 10.9657C36 10.6866 35.7638 10.5868 35.5439 10.4707C35.5439 10.4707 36.0858 9.90707 36.2861 9.36682C36.2853 9.36682 35.2212 9.03005 34.6505 9.35826ZM18.4186 27.8028C18.6407 28.304 19.0126 28.6774 19.4273 28.8886L19.3555 28.9144C18.5106 29.2341 17.8783 30.0916 17.8136 30.9904C17.7349 32.0895 18.1161 32.986 18.8816 33.7477C18.6329 34.3783 17.8058 34.2825 17.4519 33.8428C17.2679 33.6143 17.1345 33.2597 17.3233 32.8403C17.4597 32.4567 17.4433 31.7747 16.8298 31.5469V28.5847C16.9195 28.6103 17.0551 28.6151 17.2446 28.5861C17.7404 28.4615 18.1434 28.2619 18.4186 27.8028ZM17.2289 34.3331C17.0902 34.1928 16.9155 34.0174 16.8298 33.704V33.8162C16.8267 33.9091 16.8251 34.0509 16.8165 34.2247C16.8267 34.8344 16.7846 35.4448 16.6926 36.0443C16.7643 35.9366 16.8586 35.8384 16.9787 35.7566C17.275 35.5944 17.8338 35.5649 18.0802 36.0598C17.7559 35.9078 17.2211 35.9787 17.0933 36.3342C16.9654 36.724 17.1977 37.0554 17.5813 37.1106C17.8852 37.1551 18.431 36.9213 18.8442 36.031C19.1879 35.3823 19.8382 35.0356 20.5374 34.8843C20.3005 34.7883 20.1008 34.691 19.9636 34.6013C19.7274 34.447 19.4936 34.2801 19.2713 34.0984C18.8559 34.8484 17.8331 34.8577 17.2289 34.3331ZM15.7672 39.0339H20.1655C19.3182 38.8211 18.7218 38.0104 18.6352 37.1567C18.0755 37.7764 17.2717 37.8209 16.7276 37.2697C16.6325 37.1738 16.5647 37.0343 16.5319 36.8761C16.5079 36.9805 16.4813 37.0849 16.4541 37.1886C16.2825 37.8311 16.0525 38.4515 15.7672 39.0339ZM31.0053 23.6414L31.8293 23.6406C32.23 23.629 32.609 23.7303 32.9426 23.8939C33.2692 24.0537 33.553 24.272 33.7752 24.502C33.7985 25.2988 33.8328 26.051 33.8796 26.7121C33.8047 26.7168 33.769 26.7222 33.6972 26.7332C33.1227 24.955 32.2963 24.0936 31.0053 23.6414ZM31.0427 20.2371C32.312 19.7817 33.1274 18.9204 33.6979 17.1578C33.7697 17.1686 33.8056 17.1741 33.8803 17.1788C33.8382 17.7783 33.8056 18.4636 33.7821 19.1963C33.6201 19.4754 33.4104 19.7007 33.1538 19.8683C32.8109 20.0928 32.3798 20.2183 31.8574 20.2363L31.0427 20.2371ZM22.2673 7.20899C21.7247 10.1971 19.863 10.9166 18.381 11.4896C17.7801 11.7219 17.2336 11.9332 16.8251 12.2419C16.8196 12.0392 16.808 11.7523 16.7597 11.4366C16.7573 10.459 16.7557 9.5586 16.7573 9.53989C16.8275 8.70498 17.6351 8.39315 18.6188 8.01272C19.1724 7.79913 19.7757 7.56604 20.3659 7.20821L22.2673 7.20899ZM16.67 8.27933C16.3512 8.57089 16.1422 8.94742 16.097 9.4861C16.0962 9.49311 16.0962 9.61239 16.0962 9.8065C15.9279 9.54612 15.7368 9.3068 15.5303 9.08853C14.9596 8.48436 14.2681 8.07821 13.6188 7.81316C12.9133 7.5255 12.235 7.3618 11.4765 7.20666C13.9376 7.20666 16.3987 7.20744 18.8597 7.20821C18.6975 7.2737 18.5363 7.33607 18.3803 7.39687C17.9437 7.56526 17.5361 7.72351 17.1884 7.91606L17.0886 7.86227C16.5921 7.6019 15.952 7.42337 15.4016 7.60268C15.1194 7.69466 14.8926 7.87163 14.7515 8.1359V8.13668C14.7328 8.17175 14.7156 8.20761 14.7008 8.24581C15.63 7.86851 16.164 8.11797 16.1843 8.12186C16.341 8.15227 16.5039 8.20528 16.67 8.27933ZM16.1196 17.8344C16.1196 22.1275 16.1056 26.3808 16.1196 30.6808L16.1095 30.6566C15.9255 30.2038 15.7041 29.7665 15.4437 29.3487C15.0968 28.7927 14.686 28.1809 14.2557 27.5415C13.9649 27.1089 13.6655 26.6638 13.3685 26.2086C13.1612 25.758 13.038 25.241 13.0053 24.7343C12.9764 24.2884 13.0185 23.8542 13.137 23.4823C13.2469 23.1363 13.4208 22.8502 13.6624 22.6733C13.8191 22.5578 14.0093 22.4861 14.2338 22.4721C14.4318 22.4596 14.6041 22.4759 14.7507 22.5166C14.9667 22.5765 15.1296 22.6926 15.2426 22.8478C15.3603 23.0107 15.4266 23.2205 15.4414 23.4582C15.4554 23.6757 15.4273 23.9151 15.3588 24.1629C15.3003 24.3734 15.1201 24.5488 14.9066 24.6455C14.7927 24.6977 14.6712 24.725 14.5566 24.7226C14.456 24.7203 14.3617 24.6938 14.2837 24.6377C14.1652 24.5519 14.0748 24.3874 14.0452 24.1224C13.9587 23.6352 13.3389 23.7084 13.3872 24.1949C13.4402 24.6673 13.6351 24.9846 13.8978 25.174C14.0896 25.3128 14.3133 25.3782 14.5433 25.383C14.7585 25.3877 14.9784 25.3385 15.181 25.2458C15.5591 25.0734 15.8827 24.746 15.9957 24.3383C16.0846 24.0187 16.1203 23.7061 16.1017 23.4162C16.0782 23.0536 15.9707 22.7247 15.7781 22.4588C15.5802 22.1851 15.2963 21.9818 14.9268 21.8788C14.7102 21.818 14.4654 21.7939 14.1925 21.811C13.8347 21.8344 13.5283 21.9513 13.2719 22.1392C12.9094 22.4051 12.656 22.8081 12.5056 23.2828C12.4167 23.5619 12.3637 23.8682 12.3442 24.1864C12.076 23.5042 11.8897 22.8471 11.7743 22.2312C11.4391 20.4444 11.6878 19.0374 12.2117 18.423L12.2389 18.3903C12.5422 18.0489 12.9405 17.8297 13.3592 17.7807C13.7716 17.7324 14.2089 17.8508 14.5987 18.1821H14.6002L14.6314 18.2101C14.7678 18.331 14.8778 18.494 14.9549 18.6795C15.0563 18.9235 15.0968 19.2026 15.0625 19.4771C15.029 19.7451 14.9246 20.0062 14.7343 20.2207C14.5987 20.3735 14.4163 20.506 14.1816 20.6026C13.6546 20.8974 13.9789 21.4656 14.4521 21.2544C14.7881 21.1148 15.0563 20.9184 15.2621 20.6868C15.5544 20.3579 15.7142 19.9634 15.7641 19.562C15.8133 19.1668 15.754 18.763 15.6066 18.4082C15.4906 18.1283 15.3182 17.8773 15.0984 17.6817L15.0571 17.6458L15.0578 17.6451C14.5059 17.175 13.8776 17.0073 13.2797 17.0775C12.688 17.1469 12.1306 17.4501 11.712 17.9226L11.6761 17.9631C11.1093 18.628 10.7897 19.9674 10.9745 21.641C10.506 20.2316 10.3914 18.8494 10.9339 17.5935C11.2037 16.9691 11.5888 16.4811 12.0362 16.1311C12.49 15.7763 13.0092 15.5613 13.5377 15.4879C14.0623 15.4155 14.5963 15.484 15.0859 15.6954L15.0866 15.6938C15.4671 15.8583 15.8211 16.1109 16.1212 16.4523V17.4984C16.1196 17.5811 16.1165 17.638 16.1196 17.8344ZM6.99793 26.7113C7.42358 26.674 7.83908 26.6989 8.23042 26.78C8.93437 26.9258 9.56348 27.2531 10.032 27.7255C10.4919 28.1902 10.7968 28.8006 10.8599 29.5225C10.8887 29.8514 10.8685 30.2014 10.7921 30.571C10.6892 31.0651 10.3797 31.4432 9.97508 31.685C9.65702 31.8751 9.28128 31.982 8.89929 31.9968C8.83848 31.9991 8.7769 31.9991 8.71609 31.9968C8.7535 31.9866 8.79093 31.9766 8.82757 31.964C9.20488 31.8424 9.53775 31.6085 9.79188 31.3069C10.0959 30.946 10.2885 30.4844 10.308 29.9988C10.3321 29.4015 10.0811 28.9026 9.71393 28.5276C9.27348 28.0772 8.65529 27.805 8.15715 27.7645C7.58495 27.7177 7.04393 27.7833 6.545 27.9438C5.68282 28.2213 4.95781 28.7826 4.42771 29.5427C4.18059 29.8973 3.97635 30.2958 3.81965 30.7291C3.45092 30.7291 3.10869 30.7807 2.79531 30.8758C2.029 31.1065 1.43341 31.5914 1.00777 32.2089L0.953199 32.29C1.22916 31.214 1.72186 30.2787 2.33537 29.4952C3.42208 28.1091 4.88376 27.2024 6.19888 26.8533C6.47095 26.7822 6.73911 26.7339 6.99793 26.7113ZM18.2493 26.3753C18.2493 26.5429 18.2431 26.7106 18.2424 26.8773C18.1434 27.3396 17.9984 27.6249 17.7941 27.8059C17.6429 27.94 17.4472 28.0273 17.207 28.0943C17.0536 28.1114 16.9217 28.1659 16.8298 28.233V24.4123C16.8625 24.4537 16.8969 24.4934 16.9335 24.5301C17.2048 24.8615 17.5751 25.0922 17.9929 25.2044C18.5355 26.2412 17.4628 25.2286 17.2203 26.1758C17.8151 25.8382 18.0904 26.6319 18.2493 26.3753ZM13.1697 39.0339C13.5174 38.8515 13.8409 38.6339 14.1286 38.3814C14.8279 37.7671 15.5389 36.8768 16.0166 35.794C15.9598 36.2056 15.878 36.6117 15.7719 37.0093C15.5817 37.7234 15.3144 38.4063 14.9753 39.0339H13.1697ZM5.42477 37.7094C6.02738 38.3143 6.72586 38.8086 7.42513 39.1477C7.47347 39.6545 7.60521 40.098 7.80167 40.4823C7.84609 40.5688 7.89287 40.6514 7.94354 40.7318C7.03925 40.5618 6.1864 40.172 5.43491 39.6186C5.26263 39.4914 5.09502 39.3559 4.93443 39.2124C4.93911 39.0705 4.95469 38.9264 4.98354 38.7813C5.05214 38.4306 5.1948 38.0711 5.42477 37.7094ZM8.10023 28.4693C8.45026 28.4981 8.88837 28.6938 9.20721 29.0196C9.45043 29.2683 9.61726 29.5926 9.60167 29.9715C9.58842 30.298 9.45823 30.6092 9.25165 30.8547C9.08092 31.0575 8.85953 31.2133 8.61085 31.2936C8.36684 31.3723 8.094 31.3778 7.81492 31.282C7.47502 31.1657 7.1211 30.8984 6.789 30.433L5.83092 29.0914C6.11235 28.884 6.42339 28.7226 6.75861 28.6151C7.16866 28.4833 7.61924 28.4303 8.10023 28.4693ZM3.76586 34.9295C3.79315 35.0254 3.822 35.1212 3.85317 35.2171C4.09796 35.9765 4.51893 36.6797 5.04044 37.2916C4.72395 37.7538 4.53139 38.2192 4.44174 38.676L4.43318 38.7205C3.91866 38.1623 3.48445 37.5168 3.15546 36.8114C2.98708 36.4496 2.84675 36.0731 2.73762 35.6848C2.81011 35.5999 2.88886 35.5181 2.97461 35.4408C3.19289 35.2429 3.45482 35.0698 3.76586 34.9295ZM2.2847 36.4388C2.36576 36.6609 2.45541 36.8785 2.5552 37.0913C3.00422 38.0547 3.63645 38.9178 4.39732 39.6186C4.44253 40.0621 4.57817 40.4861 4.78319 40.8792C5.01863 41.3305 5.34603 41.7414 5.73114 42.0929C5.51598 42.0016 5.30551 41.9003 5.10048 41.7904C4.14473 41.2798 3.29267 40.5782 2.60275 39.7332C2.48348 39.5133 2.38136 39.2802 2.29951 39.0393C2.08357 38.408 2.00483 37.7265 2.10773 37.0913C2.14204 36.8659 2.20128 36.6476 2.2847 36.4388ZM3.48678 32.2876C3.43299 32.9487 3.47665 33.6549 3.631 34.3869C3.22718 34.5576 2.8873 34.7766 2.6051 35.0332L2.58872 35.048C2.37356 33.8927 2.43515 32.6579 2.85455 31.4363C2.88651 31.4254 2.91847 31.4152 2.95122 31.4051C3.16716 31.3396 3.40025 31.2991 3.64971 31.2858C3.5702 31.6054 3.51484 31.9407 3.48678 32.2876ZM2.02978 31.8969C1.70938 33.195 1.74445 34.4891 2.05238 35.6881C1.79669 36.0895 1.63766 36.5377 1.56282 37.0038C1.50903 37.3375 1.4989 37.6806 1.52618 38.0228C1.46771 37.8981 1.41236 37.771 1.36013 37.6432C1.23228 37.3282 1.12314 37.0062 1.03661 36.6773C0.983603 36.4785 0.937608 36.2821 0.897851 36.0871C0.779357 35.4619 0.747395 34.7978 0.798066 34.3619C0.874464 33.6994 1.09508 33.0507 1.45991 32.5214C1.62051 32.2876 1.81072 32.0762 2.02978 31.8969ZM8.01526 39.3972C9.3756 39.8836 10.9285 39.7409 12.3488 39.7418C11.1327 40.5572 9.88388 40.8799 8.70284 40.8221C8.54381 40.6492 8.40505 40.4535 8.29201 40.2328C8.16572 39.9858 8.07138 39.7082 8.01526 39.3972ZM9.57282 41.4599C10.8576 41.3343 12.182 40.7981 13.4465 39.7409H14.5449C14.0343 40.4932 13.4075 41.1355 12.6763 41.615C12.3309 41.7273 11.9622 41.7975 11.5888 41.8216C10.923 41.8653 10.2456 41.764 9.65858 41.4996L9.57282 41.4599ZM9.4325 42.0032C9.92129 42.2231 10.4615 42.3447 11.0088 42.3759C10.9137 42.4047 10.8193 42.432 10.725 42.4569C9.72953 42.7212 8.73714 42.7758 7.78607 42.6534C7.36979 42.5264 6.9613 42.3268 6.58866 42.071C6.03985 41.6946 5.57056 41.1957 5.27276 40.6242C5.19793 40.4808 5.13399 40.3318 5.08255 40.1798C6.11157 40.9274 7.316 41.3983 8.59292 41.477C8.8455 41.6915 9.12926 41.866 9.4325 42.0032ZM32.1567 23.102L32.1926 20.764C32.683 20.7079 33.1039 20.5614 33.4563 20.3306C33.5638 20.2604 33.6644 20.1817 33.7588 20.0968C33.7345 21.2863 33.7338 22.5532 33.7571 23.7544C33.5826 23.6226 33.3909 23.5018 33.1842 23.4005C32.8716 23.2469 32.5248 23.1378 32.1567 23.102ZM36.6682 14.052C36.1248 13.3106 35.4216 12.3315 34.6904 11.5527C34.6327 11.4911 34.5742 11.4319 34.515 11.3742C34.8681 11.4654 35.2212 11.6252 35.5689 11.8575C36.5683 12.5264 36.7157 13.426 36.6682 14.052ZM36.9262 14.4005C37.2301 14.0668 37.5918 13.5445 37.6208 12.9294L38.0612 14.4371L37.3174 14.8822C37.3019 14.8691 37.2824 14.851 37.2591 14.8268C37.1609 14.7099 37.0494 14.5657 36.9262 14.4005ZM28.6347 9.34889C28.2286 9.32316 27.8217 9.30602 27.4194 9.29044C27.0857 9.27796 26.2687 9.27251 25.3948 9.27172C25.6685 9.18831 25.9467 9.06825 26.2166 8.91078C26.4932 8.74941 26.7381 8.57011 27.0047 8.39783C27.095 8.33936 27.184 8.28402 27.2698 8.23489C27.7958 7.92853 28.3518 7.79366 28.7945 7.82329C28.9591 7.8342 29.104 7.86851 29.2194 7.92464C29.6925 8.15539 29.486 8.76111 29.0682 8.7728C28.9192 8.7767 28.7344 8.70342 28.7298 8.53192C28.7275 8.4485 28.7572 8.34092 28.8328 8.20683L28.2574 7.88254C28.1187 8.12888 28.064 8.35262 28.0695 8.54828C28.0742 8.72525 28.1264 8.87727 28.2098 9.00354C28.2916 9.12828 28.4024 9.22573 28.5271 9.29589C28.5615 9.31615 28.5981 9.33331 28.6347 9.34889ZM25.8844 8.33936C25.3582 8.64573 24.8024 8.7806 24.3596 8.75097C24.1951 8.74006 24.0501 8.70575 23.934 8.64963C23.8365 8.60207 23.7625 8.54048 23.7188 8.46487C23.5543 8.18267 23.7663 7.81082 24.0852 7.80146C24.4757 7.79055 24.4742 8.0938 24.3206 8.36665L24.8959 8.69095C25.0347 8.44382 25.0892 8.22086 25.0838 8.0252C25.0792 7.84823 25.0269 7.69623 24.9435 7.56994C24.8616 7.4452 24.7509 7.34776 24.6262 7.2776C24.5787 7.25109 24.5287 7.22771 24.4773 7.20899H28.1373C27.7468 7.28228 27.3321 7.43273 26.9369 7.66349C26.8268 7.72741 26.7302 7.78665 26.6437 7.84278C26.3888 8.00805 26.1503 8.185 25.8844 8.33936ZM23.7031 9.27251L23.0834 9.27406V8.66756C23.1022 8.712 23.1232 8.75487 23.1474 8.79618C23.2612 8.99186 23.432 9.14231 23.6447 9.24521L23.7031 9.27251ZM23.3547 7.44365C23.2378 7.55356 23.145 7.68608 23.0842 7.82797V7.20899H23.729C23.5871 7.262 23.46 7.34387 23.3547 7.44365ZM16.8298 31.6273C17.0831 32.1223 17.0044 32.3889 16.935 32.5526C16.886 32.6462 16.8524 32.7335 16.8298 32.8177V31.6273Z" fill="white"/>
<path d="M35.9248 34.3178C35.6413 34.9164 35.3262 35.5308 34.9796 36.161C34.6488 36.7912 34.2943 37.374 33.9162 37.9097C33.5381 38.4295 33.1522 38.8627 32.7583 39.2094C32.3802 39.5402 32.01 39.7134 31.6477 39.7292C31.0647 39.7292 30.6866 39.5402 30.5134 39.1621C30.3402 38.7682 30.2929 38.272 30.3716 37.6734C30.4503 37.0748 30.6237 36.4209 30.8915 35.712C31.1593 34.9873 31.4428 34.302 31.7422 33.6561C32.0572 32.9945 32.3488 32.4115 32.6165 31.9074C32.8843 31.4034 33.0655 31.0567 33.16 30.8677H34.6251C34.5464 31.0253 34.373 31.3481 34.1053 31.8366C33.8375 32.325 33.5381 32.8921 33.2073 33.538C32.8923 34.1682 32.5693 34.8377 32.2384 35.5466C31.9234 36.2555 31.6635 36.9014 31.4586 37.4843C31.2696 38.0673 31.1751 38.5555 31.1751 38.9494C31.1751 39.3275 31.3326 39.5166 31.6477 39.5166C31.947 39.5166 32.2699 39.359 32.6165 39.0439C32.9788 38.7131 33.3333 38.3036 33.6799 37.8151C34.0422 37.3111 34.3967 36.7518 34.7433 36.1374C35.0899 35.523 35.4128 34.9164 35.7122 34.3178H35.9248ZM34.1289 30.2769C33.9557 30.2769 33.8059 30.2139 33.6799 30.0879C33.5696 29.9461 33.5303 29.7807 33.5618 29.5916C33.5932 29.4026 33.6877 29.245 33.8453 29.119C34.0029 28.9772 34.1683 28.9063 34.3416 28.9063C34.5306 28.9063 34.6802 28.9772 34.7906 29.119C34.9165 29.245 34.9638 29.4026 34.9324 29.5916C34.9009 29.7807 34.8064 29.9461 34.6488 30.0879C34.4912 30.2139 34.3179 30.2769 34.1289 30.2769ZM44.3773 34.3178C44.1882 34.7273 43.9361 35.2394 43.6211 35.8538C43.3217 36.4682 42.9752 37.0668 42.5813 37.6497C42.2032 38.2169 41.7779 38.7053 41.3053 39.1148C40.8327 39.5244 40.3364 39.7292 39.8165 39.7292C39.3125 39.7292 38.958 39.6033 38.7532 39.3511C38.5641 39.0834 38.4774 38.7367 38.4932 38.3114C38.509 37.8702 38.6035 37.374 38.7768 36.8227C38.95 36.2713 39.1549 35.7042 39.3912 35.1212C39.6275 34.5383 39.8638 33.9712 40.1001 33.4198C40.3522 32.8685 40.5491 32.3801 40.6909 31.9547C40.8485 31.5136 40.935 31.1591 40.9508 30.8913C40.9666 30.6236 40.8641 30.4896 40.6436 30.4896C40.2813 30.4896 39.9111 30.655 39.533 30.9858C39.1707 31.3167 38.8082 31.7499 38.446 32.2855C38.0993 32.8054 37.7607 33.3962 37.4298 34.0579C37.1148 34.7037 36.8154 35.3497 36.5319 35.9956C36.2641 36.6414 36.0198 37.248 35.7993 37.8151C35.5788 38.3665 35.4054 38.8076 35.2794 39.1385H33.8852C34.3736 37.7521 34.9013 36.3579 35.4685 34.9558C36.0198 33.538 36.5477 32.1752 37.0517 30.8677H38.5168L37.3826 33.7034C37.6189 33.2466 37.871 32.8132 38.1388 32.4037C38.4065 31.9783 38.6744 31.6081 38.9422 31.2931C39.21 30.978 39.4857 30.7337 39.7693 30.5605C40.0686 30.3714 40.36 30.2769 40.6436 30.2769C41.1477 30.2769 41.4943 30.4109 41.6834 30.6786C41.8724 30.9464 41.9511 31.3009 41.9197 31.742C41.8882 32.1674 41.7779 32.6558 41.5888 33.2071C41.4156 33.7585 41.2029 34.3256 40.9508 34.9086C40.7145 35.4915 40.4704 36.0586 40.2183 36.61C39.982 37.1613 39.7929 37.6576 39.6511 38.0987C39.5093 38.5241 39.4384 38.8707 39.4384 39.1385C39.4384 39.4062 39.5724 39.5402 39.8402 39.5402C40.3128 39.5402 40.7696 39.3353 41.2108 38.9258C41.6519 38.5162 42.0615 38.0356 42.4396 37.4843C42.8176 36.9172 43.1485 36.3422 43.432 35.7593C43.7314 35.1763 43.9677 34.6959 44.141 34.3178H44.3773ZM52.918 34.3178C52.6345 34.9164 52.3193 35.5308 51.9728 36.161C51.642 36.7912 51.2875 37.374 50.9094 37.9097C50.547 38.4295 50.1689 38.8627 49.7751 39.2094C49.397 39.556 49.0268 39.7292 48.6645 39.7292C48.3179 39.7292 48.0421 39.6583 47.8374 39.5166C47.6484 39.3748 47.5066 39.1779 47.4121 38.9258C47.3332 38.6737 47.3017 38.3823 47.3175 38.0515C47.349 37.7048 47.4121 37.3347 47.5066 36.9408C47.3017 37.3031 47.0891 37.6497 46.8686 37.9806C46.6479 38.3114 46.4116 38.6108 46.1596 38.8785C45.9233 39.1306 45.6712 39.3353 45.4034 39.4929C45.1513 39.6505 44.8992 39.7292 44.6473 39.7292C44.0801 39.7292 43.6941 39.5008 43.4892 39.0439C43.2845 38.5713 43.2214 37.9884 43.3002 37.2953C43.3632 36.5863 43.5523 35.8223 43.8673 35.0031C44.1667 34.1838 44.5527 33.4276 45.0254 32.7345C45.5136 32.0256 46.0571 31.4427 46.6559 30.9858C47.2545 30.5132 47.8767 30.2769 48.5227 30.2769C48.759 30.2769 48.9481 30.332 49.0898 30.4423C49.2473 30.5369 49.3654 30.6708 49.4443 30.8441C49.523 31.0017 49.5703 31.1827 49.5861 31.3876C49.6017 31.5924 49.5939 31.7971 49.5625 32.002L50.1769 30.8677H51.642C51.5631 31.0253 51.3899 31.3481 51.1221 31.8366C50.8542 32.325 50.555 32.8921 50.224 33.538C49.909 34.1682 49.5861 34.8377 49.2553 35.5466C48.9401 36.2555 48.6801 36.9014 48.4754 37.4843C48.2864 38.0673 48.1919 38.5555 48.1919 38.9494C48.1919 39.3275 48.3493 39.5166 48.6645 39.5166C48.9637 39.5166 49.2867 39.359 49.6334 39.0439C49.9956 38.7131 50.3501 38.3036 50.6967 37.8151C51.059 37.3111 51.4135 36.7518 51.7601 36.1374C52.1066 35.523 52.4218 34.9164 52.7054 34.3178H52.918ZM44.6473 39.5166C44.9308 39.5166 45.2144 39.4142 45.498 39.2094C45.7815 38.9889 46.0571 38.7131 46.325 38.3823C46.6086 38.0356 46.8686 37.6576 47.1049 37.248C47.3568 36.8385 47.5853 36.4288 47.7902 36.0192C47.8374 35.8774 47.9398 35.6489 48.0974 35.3339C48.2548 35.0031 48.4202 34.6328 48.5936 34.2233C48.7668 33.8137 48.9244 33.3884 49.0662 32.9472C49.2237 32.506 49.3182 32.1043 49.3498 31.742C49.397 31.3797 49.3576 31.0804 49.2316 30.8441C49.1213 30.6078 48.885 30.4896 48.5227 30.4896C48.1919 30.4896 47.8374 30.7181 47.4593 31.1749C47.0812 31.6161 46.711 32.1674 46.3487 32.829C45.9862 33.4907 45.6476 34.2154 45.3326 35.0031C45.0332 35.7907 44.7969 36.5155 44.6236 37.1771C44.4502 37.8388 44.3557 38.3981 44.3401 38.8549C44.3243 39.2961 44.4266 39.5166 44.6473 39.5166ZM58.951 34.3178C58.6832 34.8691 58.4075 35.4679 58.1239 36.1137C57.8561 36.7439 57.5331 37.3267 57.155 37.8624C56.7769 38.3981 56.328 38.8471 55.8081 39.2094C55.2882 39.556 54.666 39.7292 53.9412 39.7292C53.4844 39.7292 53.1063 39.6347 52.807 39.4457C52.5077 39.2566 52.2871 39.0203 52.1453 38.7367C52.0035 38.4374 51.9326 38.1223 51.9326 37.7915C51.9326 37.4449 52.0035 37.1298 52.1453 36.8463C52.2871 36.5469 52.4919 36.3028 52.7597 36.1137C53.0276 35.9247 53.3505 35.8302 53.7286 35.8302V36.0428C53.2245 36.0428 52.8386 36.2241 52.5707 36.5863C52.2871 36.9486 52.1453 37.3504 52.1453 37.7915C52.1453 38.2327 52.2871 38.6344 52.5707 38.9967C52.8542 39.3433 53.3112 39.5166 53.9412 39.5166C54.4611 39.5166 54.8156 39.3748 55.0046 39.0912C55.1937 38.8076 55.2804 38.4295 55.2646 37.9569C55.2489 37.4843 55.178 36.9566 55.0519 36.3737C54.9259 35.7907 54.8078 35.1921 54.6974 34.5777C54.6029 33.9633 54.5556 33.3726 54.5556 32.8054C54.5556 32.2383 54.6896 31.742 54.9574 31.3167C54.4533 31.742 54.0358 32.2461 53.7049 32.829C53.3741 33.412 53.0749 33.987 52.807 34.5541H52.5943C52.9095 33.8924 53.2481 33.2386 53.6104 32.5927C53.9885 31.9469 54.4769 31.3954 55.0755 30.9386C55.2173 30.8441 55.3749 30.7417 55.5481 30.6314C55.7372 30.5054 55.9262 30.4187 56.1153 30.3714C56.3201 30.3084 56.517 30.2848 56.7061 30.3006C56.9109 30.3164 57.0841 30.4029 57.2259 30.5605L57.0605 30.7023C56.8715 30.4974 56.6352 30.4265 56.3516 30.4896C56.0838 30.5369 55.8869 30.6708 55.7608 30.8913C55.6348 31.0962 55.5797 31.3876 55.5954 31.7657C55.6112 32.128 55.6585 32.5455 55.7372 33.0181C55.8317 33.4749 55.942 33.9633 56.068 34.4832C56.1941 35.0031 56.2887 35.523 56.3516 36.0428C56.4305 36.5469 56.4619 37.0275 56.4461 37.4843C56.4305 37.9411 56.328 38.3428 56.1389 38.6895C56.4383 38.4217 56.714 38.0987 56.966 37.7206C57.2339 37.3267 57.4702 36.925 57.6749 36.5155C57.8956 36.1059 58.0924 35.7042 58.2657 35.3103C58.4547 34.9164 58.6123 34.5856 58.7383 34.3178H58.951Z" fill="white"/>
<path d="M122.041 34.3178C121.931 34.5383 121.789 34.8298 121.616 35.1921C121.443 35.5387 121.246 35.9168 121.025 36.3264C120.82 36.7203 120.584 37.122 120.316 37.5316C120.064 37.9411 119.796 38.3114 119.513 38.6422C119.245 38.9572 118.969 39.2172 118.686 39.422C118.402 39.6269 118.118 39.7292 117.835 39.7292C117.205 39.7292 116.787 39.556 116.582 39.2093C116.378 38.8471 116.299 38.3981 116.346 37.8624C116.409 37.311 116.559 36.6967 116.795 36.0192C117.031 35.3417 117.284 34.688 117.551 34.0578C117.819 33.412 118.055 32.8212 118.26 32.2855C118.481 31.7498 118.591 31.3481 118.591 31.0804C118.591 30.6235 118.433 30.34 118.118 30.2296C117.851 30.9858 117.543 31.7184 117.197 32.4273C116.866 33.1204 116.527 33.8294 116.181 34.5541H115.968C116.315 33.8452 116.653 33.1284 116.984 32.4037C117.331 31.6789 117.638 30.9386 117.906 30.1824C117.874 30.1666 117.811 30.1588 117.717 30.1588C117.339 30.1588 117.126 29.9933 117.079 29.6625C117.047 29.3159 117.102 28.9458 117.244 28.5519C117.386 28.1423 117.575 27.7878 117.811 27.4885C118.048 27.1734 118.244 27.0395 118.402 27.0868C118.575 27.1498 118.67 27.3152 118.686 27.583C118.701 27.8508 118.678 28.1423 118.615 28.4573C118.567 28.7724 118.497 29.0796 118.402 29.3789C118.307 29.6625 118.244 29.8594 118.213 29.9697C118.89 30.017 119.355 30.1666 119.607 30.4187C119.875 30.6708 119.993 30.9937 119.962 31.3876C119.946 31.5766 119.828 31.9153 119.607 32.4037C119.402 32.8763 119.158 33.412 118.875 34.0106C118.591 34.6092 118.307 35.2394 118.024 35.901C117.74 36.5469 117.52 37.1456 117.362 37.697C117.22 38.2327 117.173 38.6737 117.22 39.0203C117.268 39.3669 117.48 39.5323 117.858 39.5165C118.237 39.5165 118.622 39.3039 119.016 38.8785C119.426 38.4374 119.812 37.9333 120.174 37.3661C120.552 36.799 120.883 36.2319 121.167 35.6647C121.466 35.0818 121.687 34.6328 121.828 34.3178H122.041ZM118 29.9697C118.016 29.891 118.063 29.7176 118.142 29.4498C118.237 29.1663 118.315 28.8749 118.378 28.5755C118.441 28.2605 118.473 27.9769 118.473 27.7248C118.489 27.4727 118.441 27.3309 118.331 27.2994C118.221 27.2836 118.071 27.4176 117.882 27.7012C117.709 27.9689 117.559 28.2761 117.433 28.6228C117.323 28.9536 117.268 29.2608 117.268 29.5444C117.284 29.8279 117.433 29.9697 117.717 29.9697H118ZM122.069 39.5165C122.368 39.5165 122.691 39.359 123.037 39.0439C123.4 38.7131 123.754 38.3035 124.101 37.8151C124.463 37.3111 124.818 36.7517 125.164 36.1373C125.511 35.5229 125.826 34.9164 126.109 34.3178H126.322C126.039 34.9164 125.724 35.5308 125.377 36.161C125.046 36.7912 124.692 37.374 124.314 37.9096C123.951 38.4295 123.573 38.8627 123.179 39.2093C122.801 39.556 122.431 39.7292 122.069 39.7292C121.675 39.7292 121.383 39.6032 121.194 39.3511C121.005 39.099 120.903 38.7604 120.887 38.335C120.871 37.9096 120.926 37.4134 121.052 36.8463C121.179 36.2791 121.352 35.6805 121.572 35.0503C121.793 34.4045 122.037 33.7428 122.305 33.0653C122.588 32.3879 122.88 31.7342 123.179 31.104H121.69V30.8913H123.274C123.699 29.9933 124.101 29.1899 124.479 28.481C124.857 27.7562 125.133 27.2285 125.306 26.8977H126.653C126.48 27.2127 126.212 27.7326 125.85 28.4573C125.487 29.1663 125.101 29.9775 124.692 30.8913H126.204V31.0804H124.573C124.148 32.0098 123.723 32.9786 123.297 33.9869C122.872 34.9794 122.518 35.8852 122.234 36.7045C121.95 37.5237 121.777 38.201 121.714 38.7367C121.651 39.2566 121.769 39.5165 122.069 39.5165ZM132.293 34.3178C132.104 34.7273 131.836 35.2394 131.489 35.8538C131.159 36.4682 130.781 37.0668 130.355 37.6497C129.93 38.2168 129.465 38.7053 128.961 39.1148C128.473 39.5244 127.984 39.7292 127.496 39.7292C126.834 39.7292 126.346 39.4929 126.031 39.0203C125.7 38.5477 125.527 37.9647 125.511 37.2716C125.495 36.5785 125.613 35.8223 125.865 35.0031C126.101 34.1838 126.44 33.4276 126.881 32.7345C127.338 32.0414 127.874 31.4584 128.488 30.9858C129.118 30.5132 129.804 30.2769 130.544 30.2769C130.843 30.2769 131.064 30.3793 131.206 30.5841C131.348 30.789 131.403 31.0489 131.371 31.3639C131.355 31.679 131.253 32.0256 131.064 32.4037C130.891 32.766 130.639 33.1048 130.308 33.4198C129.977 33.7348 129.567 34.0027 129.079 34.2232C128.606 34.4281 128.063 34.5383 127.449 34.5541C127.212 35.1527 127.015 35.7514 126.858 36.35C126.7 36.933 126.606 37.4607 126.574 37.9333C126.558 38.4059 126.614 38.7918 126.74 39.0912C126.881 39.3748 127.133 39.5165 127.496 39.5165C127.953 39.5165 128.409 39.3197 128.866 38.9258C129.339 38.5162 129.78 38.0356 130.19 37.4843C130.615 36.9172 130.985 36.3422 131.3 35.7592C131.631 35.1763 131.883 34.6959 132.057 34.3178H132.293ZM130.544 30.4896C130.308 30.4896 130.056 30.5999 129.788 30.8204C129.536 31.0409 129.276 31.3325 129.008 31.6948C128.756 32.0414 128.496 32.4431 128.228 32.8999C127.976 33.3567 127.748 33.8373 127.543 34.3414C128.094 34.3256 128.591 34.2232 129.032 34.0342C129.473 33.8294 129.843 33.5852 130.142 33.3016C130.442 33.0023 130.678 32.6951 130.851 32.38C131.025 32.0492 131.127 31.742 131.159 31.4584C131.19 31.1749 131.151 30.9464 131.04 30.7732C130.946 30.5841 130.781 30.4896 130.544 30.4896ZM138.294 34.3178C138.026 34.8691 137.75 35.4679 137.467 36.1137C137.199 36.7439 136.876 37.3267 136.498 37.8624C136.12 38.3981 135.671 38.8471 135.151 39.2093C134.631 39.556 134.009 39.7292 133.284 39.7292C132.827 39.7292 132.449 39.6347 132.15 39.4456C131.851 39.2566 131.63 39.0203 131.488 38.7367C131.346 38.4374 131.276 38.1223 131.276 37.7915C131.276 37.4449 131.346 37.1298 131.488 36.8463C131.63 36.5469 131.835 36.3028 132.103 36.1137C132.37 35.9247 132.693 35.8301 133.072 35.8301V36.0428C132.567 36.0428 132.181 36.224 131.914 36.5863C131.63 36.9486 131.488 37.3503 131.488 37.7915C131.488 38.2327 131.63 38.6344 131.914 38.9967C132.197 39.3433 132.654 39.5165 133.284 39.5165C133.804 39.5165 134.159 39.3748 134.348 39.0912C134.537 38.8076 134.623 38.4295 134.608 37.9569C134.592 37.4843 134.521 36.9566 134.395 36.3736C134.269 35.7907 134.151 35.1921 134.04 34.5777C133.946 33.9633 133.899 33.3725 133.899 32.8054C133.899 32.2383 134.033 31.742 134.3 31.3167C133.796 31.742 133.379 32.2461 133.048 32.829C132.717 33.412 132.418 33.9869 132.15 34.5541H131.937C132.252 33.8924 132.591 33.2386 132.953 32.5927C133.331 31.9469 133.82 31.3954 134.418 30.9386C134.56 30.844 134.718 30.7417 134.891 30.6314C135.08 30.5054 135.269 30.4187 135.458 30.3714C135.663 30.3084 135.86 30.2847 136.049 30.3005C136.254 30.3163 136.427 30.4029 136.569 30.5605L136.403 30.7023C136.214 30.4974 135.978 30.4265 135.695 30.4896C135.427 30.5368 135.23 30.6708 135.104 30.8913C134.978 31.0962 134.923 31.3876 134.938 31.7656C134.954 32.1279 135.001 32.5455 135.08 33.0181C135.175 33.4749 135.285 33.9633 135.411 34.4832C135.537 35.0031 135.631 35.5229 135.695 36.0428C135.773 36.5469 135.805 37.0275 135.789 37.4843C135.773 37.9411 135.671 38.3428 135.482 38.6895C135.781 38.4217 136.057 38.0987 136.309 37.7206C136.577 37.3267 136.813 36.925 137.018 36.5154C137.238 36.1059 137.435 35.7042 137.609 35.3103C137.798 34.9164 137.955 34.5855 138.081 34.3178H138.294Z" fill="white"/>
<path fill-rule="evenodd" clip-rule="evenodd" d="M86.5123 23.8284L96.0528 23.8316L96.4291 25.1318C93.1496 28.3645 89.4439 31.6503 85.4934 34.1208C83.9452 32.9085 83.9468 30.7779 84.5901 29.0078H84.5917L86.5123 23.8284ZM92.1038 30.3683C92.5515 30.3057 92.969 30.3065 93.4468 30.3872C95.2311 30.6884 95.5742 29.7036 96.7746 29.8374C95.998 29.0325 94.8373 29.1909 93.7685 29.5752C93.1798 29.7867 92.603 30.0799 92.1038 30.3683ZM91.5142 31.1527C90.5136 31.392 90.0723 31.7643 89.4003 32.2755C90.9019 31.7311 92.3763 31.43 93.8089 32.0773C94.968 32.601 95.6226 33.8537 95.4133 35.1016C95.4917 35.013 95.5901 34.9685 95.7121 34.9393C96.2057 34.8656 96.7572 34.7665 97.2428 34.5653C98.4748 34.055 98.8346 32.9759 98.3568 31.7865C98.2911 31.6242 98.2174 31.3063 98.1644 31.1233L97.4457 30.7866C96.2064 30.2059 95.8555 30.8984 94.793 31.1052C93.6274 31.3326 92.9412 30.8113 91.5142 31.1527ZM97.5708 35.2031C98.6634 34.7205 99.3037 33.8537 99.2705 32.6549C99.2554 32.1138 98.9987 31.4276 98.8322 30.8579L97.2364 25.3434C98.8164 23.7683 100.481 21.9935 101.982 20.3383C102.244 21.1543 102.506 21.9712 102.767 22.7873C102.483 23.6249 101.71 23.5907 100.917 23.5566C100.509 23.5392 100.095 23.521 99.7118 23.5971C97.4655 24.0415 97.0028 26.7648 98.5739 27.9613C99.5184 28.6807 100.793 28.611 101.985 28.2385C100.905 29.8152 100.231 31.7572 101.098 33.5843C101.475 34.3791 102.172 34.9622 103.029 35.2023H97.5708V35.2031ZM95.7936 35.9217H113.604L113.604 34.9487C111.807 34.8458 109.659 33.9369 108.209 32.9377C107.379 32.3665 106.727 31.7787 106.242 30.946C106.561 31.2676 106.921 31.5608 107.314 31.7794C107.747 32.0195 108.219 32.17 108.721 32.17C108.824 32.1835 108.926 32.1906 109.026 32.1906C111.066 32.1906 112.067 29.7154 110.64 28.2884C109.213 26.8607 106.738 27.8678 106.738 29.9047C106.738 30.1148 106.768 30.3121 106.82 30.5101C106.298 30.0015 105.855 29.3652 105.519 28.7259L105.221 28.1609L102.513 19.7448C102.749 19.4762 103.033 19.114 103.298 18.878C103.462 18.7472 103.623 18.6577 103.775 18.603C104.203 18.4485 104.714 18.5658 104.852 19.0333C105.021 19.6045 104.869 19.9634 104.7 20.6901C105.048 20.3818 105.352 20.1101 105.502 19.6973C105.792 18.8978 105.321 18.0611 104.52 17.8638C105.107 17.4645 105.745 17.1428 106.416 16.9226C107.074 16.707 108.214 16.4898 108.908 16.6302C109.637 16.7775 109.632 17.3995 109.381 17.6522C109.26 17.7743 109.289 17.8092 109.044 17.9597C108.815 18.0998 108.376 18.2536 108.067 18.3605C108.468 18.4676 108.861 18.5745 109.239 18.5001C110.003 18.3494 110.412 17.5698 110.183 16.856C110.626 16.997 111.142 17.2181 111.517 17.493C111.925 17.7925 112.381 18.3257 112.532 18.8185C112.788 19.6505 112.595 20.2083 112.438 20.9562C112.745 20.61 113.049 20.274 113.199 19.8558C113.251 19.7107 113.284 19.5641 113.301 19.4168C113.764 20.2448 113.936 21.0695 113.91 21.9926C113.9 22.3571 113.698 23.0124 113.456 23.3301C112.975 23.9647 112.839 24.0638 112.059 24.3022L111.404 24.5027C111.971 24.5178 112.583 24.5637 113.107 24.3957C112.516 25.2848 111.621 26.0692 110.474 26.0652C109.643 26.0628 109.293 25.9297 108.488 25.7007C108.744 25.9416 109.019 26.2141 109.314 26.3869V26.3876L109.383 26.4264C107.591 26.3972 105.977 25.341 105.669 23.5163C105.096 20.1124 108.973 18.9977 110.3 21.0109C110.803 21.7763 110.844 22.9529 110.178 23.6414C109.165 24.6874 107.366 23.9996 107.476 22.6265C107.521 22.0584 108.297 21.7375 108.695 22.1781C109.104 22.6321 108.847 23.3887 108.194 23.3744L107.679 23.3546C108.18 23.6065 108.637 23.9108 109.158 23.5289C110.178 22.7809 109.403 21.0894 108.08 21.2091C107.271 21.2819 106.677 22.0005 106.734 22.8024C106.879 24.8473 109.281 25.5771 110.672 24.1526C112.036 22.7548 111.389 20.1655 109.453 19.4873C107.058 18.649 104.448 20.6037 104.965 23.6414C105.499 26.7815 109.191 27.9763 111.819 26.5366C114.241 25.2095 115.283 22.163 114.197 19.618C113.603 18.2251 112.37 16.9796 110.929 16.3695C108.265 15.242 105.302 16.1246 103.205 17.9842C104.607 15.6991 107.063 15.3711 107.306 13.9774C107.504 12.842 105.958 11.5276 103.764 14.5859C103.152 15.4384 102.601 16.5287 102.25 17.5746C102.32 13.9545 104.846 11.9087 105.026 10.2281C105.17 8.8804 103.832 8.02864 102.777 8.85822C101.351 9.98015 100.979 13.2461 100.982 14.9917L96.1629 0L96.0409 0.248791C94.7549 2.86743 90.5445 3.54962 87.9893 3.6027L88.017 4.30312C88.5462 4.3776 88.8513 4.68502 89.1627 5.09624C89.6111 5.68652 89.936 6.55017 89.6713 7.28703L89.5786 7.52156C89.0946 6.57551 87.4957 6.96693 87.4528 8.40975C86.5369 7.104 84.4816 6.92176 83.2971 8.00328C81.8083 9.36292 82.3106 11.9895 84.3636 12.2589C86.2936 12.5124 87.1067 10.164 86.2976 9.11096C85.5758 8.17047 83.885 8.64428 83.885 9.9651H83.8858C83.8858 10.2448 83.9991 10.7202 84.2828 10.8644C84.9768 11.2193 84.6045 9.98252 84.6045 9.98015C84.6045 9.42394 85.2605 9.14028 85.6662 9.52218C85.9434 9.78366 85.9015 10.1632 85.827 10.4967C85.4411 12.2391 83.0919 11.713 83.1584 9.89061C83.1989 8.78611 84.1338 7.97398 85.2224 8.01439C86.6953 8.06905 87.4647 9.23852 87.1874 10.6473C86.712 13.0655 84.5807 13.3016 83.1624 16.268C82.7734 17.0825 82.5911 17.8733 82.5198 18.7441C81.6965 17.4685 80.8012 17.3964 80.8869 14.0567L80.909 13.2041C80.6999 13.399 80.4899 13.5932 80.2822 13.7889C77.6391 16.2649 78.3506 19.7543 81.195 21.6709C81.6 21.9435 82.0516 22.1891 82.5492 22.4014C82.5595 23.5526 82.4826 24.7213 82.2386 25.9114C82.1839 24.4321 81.7005 23.0068 80.7339 21.9862C80.2111 21.434 79.7672 21.1686 79.3521 21.0379C77.3491 20.4072 75.3406 21.2534 74.6639 23.2905C74.5807 23.5321 74.5094 23.7904 74.4333 24.036C75.1266 23.769 75.6583 23.5345 76.4363 23.525C78.2738 23.502 79.9377 24.673 80.5937 26.3798C80.9993 27.4343 81.0183 28.5966 80.7735 29.774C80.6776 30.2337 80.6912 30.2954 80.5224 30.7185C79.1564 34.1438 76.9648 34.6984 73.4476 34.921V35.9217H82.179C81.1189 36.4035 79.6777 36.9399 78.5684 37.1236L77.6557 37.2631C76.6876 37.3678 75.7565 37.328 74.8786 37.1158C73.8985 36.8788 72.363 36.2093 71.7964 35.2181C71.3932 34.5129 71.1856 33.7405 71.7465 33.0654H71.7474C72.1522 32.5772 72.9651 32.6629 73.2964 33.4124C73.45 33.7595 73.5024 34.036 73.5444 34.4353C74.8256 32.4854 72.3004 31.2778 71.1966 32.6074H71.1959C70.8639 33.0076 70.6943 33.4576 70.6887 33.9592C70.2688 33.181 69.8806 31.9188 70.0644 31.0195C70.2135 30.2923 70.8441 29.8049 71.5706 29.9657C72.1784 30.1004 72.4755 30.6543 72.7939 31.1075C72.8987 30.5299 72.577 29.7337 72.0889 29.4373C71.5256 29.0942 70.8187 29.1679 70.2776 29.5086C70.4709 28.9018 70.8528 28.1372 71.2847 27.6721C71.5849 27.3479 72.046 27.1333 72.4842 27.0968C73.084 27.0469 73.7971 27.3241 74.2843 27.5777C74.3391 27.6062 74.4254 27.6815 74.5696 27.7821C74.4602 27.2577 73.992 26.8258 73.6054 26.6174C73.3899 26.5009 73.153 26.4248 72.9018 26.3916C73.58 26.047 74.7811 25.6604 75.5561 25.8798C76.1796 26.0565 76.8713 26.5199 77.1661 27.0683C77.1953 27.123 77.2556 27.2322 77.3736 27.4708C77.4536 27.058 77.2937 26.4978 77.0519 26.1222C78.8354 26.8378 79.8758 28.5309 79.2753 30.4254C78.8029 31.9125 77.1574 33.0971 75.6076 32.5044C75.0039 32.2739 74.5419 31.8682 74.301 31.2462C73.8208 30.0055 74.5324 28.6687 75.9166 28.6498C76.5734 28.6411 77.2429 29.0768 77.4711 29.6862C77.8998 30.8325 76.9648 31.4292 76.4205 30.8841C75.9348 30.3985 76.361 29.6085 77.204 29.656C77.2659 29.6591 77.3149 29.66 77.4037 29.6876C77.4037 29.3129 76.3334 28.8114 75.6948 29.5593C74.9412 30.442 75.667 31.8571 76.8531 31.8571C77.6597 31.8571 78.3133 31.2034 78.3133 30.3968C78.3133 28.6268 76.567 27.4564 74.946 28.1141C72.7996 28.9849 72.9161 32.3055 75.4134 33.1977C77.3396 33.8855 79.3624 32.5068 79.9558 30.6495C80.619 28.5745 79.6547 26.6277 77.739 25.646C77.3222 25.4329 76.8934 25.2863 76.4625 25.196C74.7265 24.811 72.5071 22.823 70.3616 24.0645C68.3878 25.2064 66.4173 24.6414 64.5419 24.1889C64.4817 24.1747 64.3771 24.1486 64.217 24.0891C64.3771 24.3387 64.6957 24.7048 64.8731 24.9274C65.4808 25.6929 66.8888 26.5715 68.0021 26.9391C68.5218 27.1103 69.0773 27.2235 69.6493 27.237C68.3664 27.405 66.9926 27.2362 65.8778 27.8591C64.6592 28.5404 64.0816 29.8383 63.3478 31.5164C63.3233 31.5734 63.2868 31.6329 63.2124 31.8682C63.6434 31.5797 63.8772 31.3809 64.2686 31.0861C66.2264 29.6148 67.4727 30.5806 69.6184 29.2186L69.601 29.2725C68.1731 29.9309 66.491 31.1939 66.9252 32.9219C67.1867 33.963 67.2041 35.07 66.6796 36.0343C66.3619 36.619 66.3097 36.7577 65.9063 37.3836C66.4538 37.0285 66.7027 36.8392 67.1963 36.5017C68.758 35.436 69.0804 34.04 69.383 32.3888C69.6088 33.6034 70.2062 34.7736 71.058 35.6665C72.6474 37.3337 74.5902 38.0799 76.823 38.0364C75.0451 39.3604 74.7543 41.8427 76.392 43.4068C78.4337 45.3568 81.9193 43.9354 81.607 41.1146C81.336 38.6639 78.0534 38.5871 77.5646 40.476C77.3285 41.3896 78.0305 42.3023 78.9774 42.3023C80.4915 42.3023 81.0341 40.3761 79.4154 40.0316C79.3553 40.0189 79.0431 39.9958 78.8775 40.064C79.2793 40.1931 79.6033 40.3057 79.7206 40.6971C79.9575 41.4902 78.9861 41.8919 78.4702 41.3887C77.9505 40.8809 78.3015 39.8785 79.345 39.8232C80.8226 39.7447 81.424 41.6653 80.3932 42.8331C79.7443 43.5685 78.6025 43.7807 77.7056 43.4195C76.7192 43.0217 76.0061 42.0068 76.0266 40.9396C76.0449 39.9974 76.4704 39.1346 77.2478 38.6133C80.6547 36.3298 85.9482 38.7122 88.8893 40.3935C92.466 42.4386 96.1812 44.562 104.188 42.6906C106.256 42.2072 108.452 41.5686 110.577 41.6185C112.942 41.6748 114.859 42.4822 117.175 44.1761C117.002 43.4218 116.599 42.3412 116.294 41.6906C115.708 40.4348 114.966 39.4238 114.112 38.6338C110.946 35.7006 106.311 35.8686 102.59 37.607C99.5057 39.0482 97.181 39.518 95.1804 39.4855C90.7957 39.4135 87.746 36.8599 81.7441 36.8891C82.3811 36.627 82.9936 36.3392 83.614 36.0192C83.6536 35.9985 83.6837 35.9858 83.7828 35.9194H88.3981V35.9185C88.9472 35.913 89.0129 35.2553 88.5994 35.0754C88.2728 34.9337 87.3229 35.0644 86.2279 34.5613C87.9481 33.6279 90.4343 32.342 92.2463 32.4244C93.0467 32.4608 93.8208 32.7279 94.3112 33.3665C94.7803 33.9774 94.8595 34.7657 94.5656 35.4781C94.3136 36.0896 93.8278 36.47 93.2242 36.6357C92.3836 36.867 91.3289 36.5881 91.1626 35.6547C91.1007 35.3085 91.2251 34.9899 91.4668 34.761C91.2045 35.84 92.5435 36.6293 93.3533 35.8195C94.0466 35.1263 93.6045 34.0344 92.5689 33.7944C91.0239 33.4369 89.6793 35.2514 90.9201 36.7306C91.8954 37.8939 94.6068 37.6759 95.3064 35.5422C95.3968 35.9248 95.7794 35.9083 95.7936 35.9217ZM93.431 28.935C95.2953 28.2385 97.0749 28.3566 97.9448 30.3644L96.6564 25.9154C95.6201 26.9304 94.5307 27.9556 93.431 28.935ZM101.54 33.3665C101.75 33.8118 102.088 34.1889 102.508 34.4455C102.895 34.6826 103.373 34.8307 103.932 34.8307C105.28 34.8307 106.26 33.3593 105.916 32.216C105.731 31.6004 104.919 31.0053 104.248 31.0053C103.767 31.0053 103.259 31.2288 102.968 31.6169C102.665 32.0203 102.669 32.5012 102.86 32.9505C103.032 33.2207 103.261 33.3926 103.499 33.4694C104.027 33.6406 104.519 33.3268 104.657 32.7992C104.993 32.7943 105.096 32.6177 105.203 32.1003C105.192 32.6407 105.195 33.1105 104.811 33.5502C103.987 34.4963 102.233 33.9116 102.233 32.3412C102.233 30.9943 103.886 29.9436 105.375 30.8603C105.242 30.5751 105.142 30.2819 105.049 29.9777C104.727 28.9524 104.404 27.9271 104.079 26.9035C103.96 26.8599 103.8 26.8797 103.631 27.0587C102.803 27.8139 101.953 29.0506 101.587 29.9753C101.498 30.1988 101.426 30.4159 101.368 30.6241C101.203 31.3967 101.064 32.5282 101.54 33.3665ZM104.675 35.2031C105.797 34.8275 106.615 33.5954 106.459 32.4062C107.725 33.723 109.583 34.6626 111.257 35.2031H104.675ZM86.7786 23.113L87.5582 21.0109H95.2367L95.8459 23.1161L86.7786 23.113ZM95.029 20.2931L87.8237 20.2947L91.8717 9.38353L95.029 20.2931ZM95.4467 19.1616C95.884 19.0832 96.0543 19.6917 95.6502 19.8645L97.0082 24.5558C98.6333 22.9267 100.216 21.2367 101.727 19.5466C101.014 17.329 100.296 15.1128 99.5794 12.8983C99.4328 12.8555 99.2743 12.861 99.1372 12.9363C98.8164 13.1122 98.7609 13.5298 98.7689 13.8919C98.8466 14.8443 98.8402 15.5185 98.3545 16.337C98.0907 16.7815 97.7578 17.0738 97.3087 17.3211C98.0843 17.6159 98.6643 18.3004 98.913 19.0903C99.0279 19.4548 99.3117 19.7891 99.6832 19.9048C100.156 20.0514 100.879 19.7178 101.132 19.3106C101.181 19.6615 100.559 20.5886 99.5382 20.3755C99.0105 20.2114 98.6057 19.759 98.4416 19.2393C98.1976 18.4652 97.567 17.8005 96.7421 17.6823C96.0361 17.5872 95.4632 17.6411 94.8658 17.1579L95.4467 19.1616ZM86.4443 21.9419L85.7494 19.2876L81.0857 31.2121C80.5905 32.3681 80.0343 33.2801 79.2087 33.9726C78.5455 34.5288 77.712 34.94 76.6012 35.2197L83.6251 35.2054C83.717 35.1816 84.6702 34.6191 84.8239 34.528C83.3613 33.2603 83.1735 31.3611 83.6489 29.5237C83.3303 29.8572 82.9959 30.1781 82.6641 30.4666C81.8368 31.186 80.9708 32.1265 80.8599 33.2516C80.829 33.5646 80.8472 33.8695 80.9677 34.1358C81.1293 34.4924 81.4898 34.7149 81.9082 34.7111C82.7583 34.7038 82.9175 33.7214 82.5508 33.2968C82.4541 33.185 82.3321 33.0606 81.9645 32.9853C82.4001 32.8079 82.8313 32.9561 83.08 33.3816C83.4722 34.0511 82.9476 35.1943 81.9129 35.2031C80.8116 35.2127 80.2396 34.2618 80.3552 33.2919C80.5104 31.9862 81.3836 30.9253 82.3399 30.0941C82.9897 29.5292 83.6727 28.935 84.1504 28.1118C84.8857 26.1365 85.655 24.0662 86.4443 21.9419ZM101.186 27.9351C101.591 27.8567 102.039 27.7204 102.528 27.5143C102.95 27.0017 103.416 26.5453 103.868 26.2458C103.574 25.3204 103.28 24.3949 102.985 23.4702C102.278 24.4559 100.844 23.8776 99.806 24.0827C98.5106 24.3387 97.8703 25.558 98.2412 26.6816C98.6349 27.8765 99.8742 28.1633 101.186 27.9351ZM95.5195 16.9827C95.2977 16.8852 95.094 16.7331 94.9301 16.5209C94.6892 16.1175 94.7652 15.7443 94.9315 15.5415C95.1764 15.2444 95.6907 15.1714 95.9989 15.3941C96.5923 15.822 96.2088 16.4693 95.945 16.5438C96.9639 16.4773 96.7643 15.3585 96.2262 14.9987C95.7184 14.6588 94.9562 14.7365 94.5521 15.2286C94.4879 15.2999 94.4071 15.3315 94.3294 15.3006L93.6488 12.9498C94.2629 13.4593 95.1416 13.5179 95.8808 13.2382C96.7096 12.9244 97.3299 12.0838 97.3934 11.2011C97.471 10.1228 97.0963 9.24408 96.3451 8.49692C95.8784 8.03657 95.35 7.63803 94.7208 7.3821C97.5201 6.77835 96.83 3.66213 95.0069 3.2937C93.805 3.05045 92.9952 3.6241 92.0372 3.78574C93.4452 3.41097 94.9744 2.77314 95.949 1.67656L99.4106 12.3793C98.7475 12.3698 98.3401 12.93 98.2878 13.5828C98.2174 14.4703 98.536 15.0645 97.9298 16.0858C97.4584 16.8805 96.4077 17.3726 95.5195 16.9827ZM92.5451 9.13632C92.3621 8.50403 92.179 7.87256 91.9953 7.24107C92.3169 7.24265 92.5595 7.27752 92.8597 7.32507C93.5443 7.48353 94.5529 7.78857 94.9847 8.054C95.491 8.3844 95.7477 8.56109 96.3119 9.19891C96.765 9.78048 96.9545 10.4302 96.9013 11.1663C96.8514 11.858 96.3571 12.5306 95.7074 12.7763C94.9942 13.0457 94.1092 12.9276 93.6773 12.2438C93.2368 11.5466 93.2542 10.5023 93.9943 10.0134C94.308 9.80662 95.1456 9.66559 95.5742 10.1346C95.7762 10.3565 95.8848 10.6148 95.892 10.9127C95.9054 11.4602 95.5489 11.8904 95.0092 11.7914L94.8223 11.7375C94.6084 11.8144 94.2406 11.7771 93.9317 11.2772C93.9689 11.8366 94.4151 12.1828 94.9205 12.2755C95.7731 12.4316 96.3863 11.7415 96.3696 10.8858C96.3522 9.9952 95.7477 9.38353 94.9341 9.32331C93.9135 9.24724 93.2092 9.82406 92.9754 10.6219L92.7385 9.80346C93.1101 9.6236 92.9294 9.13314 92.5451 9.13632ZM90.8186 10.1545L86.7421 21.1385L86.0536 18.5088L90.2172 7.86147L90.8186 10.1545ZM91.5357 8.22277L91.1174 9.35025L90.4613 6.85046C90.4764 6.50579 90.4272 6.15796 90.3258 5.8236C90.1468 5.23094 89.8044 4.6779 89.3703 4.25084L90.3488 4.12248L91.5357 8.22277ZM109.024 31.4728C107.627 31.4728 106.937 29.7764 107.915 28.797C108.522 28.1909 109.525 28.1909 110.132 28.797C111.111 29.7757 110.421 31.4728 109.024 31.4728ZM104.446 37.6459C105.537 37.2941 106.659 37.092 107.761 37.0674C111.033 36.9946 113.779 38.4984 115.374 41.4569C111.8 38.0213 107.564 38.1395 102.976 39.8849C99.9692 41.0291 96.9908 41.0385 94.1535 40.5045C91.8439 40.0704 89.627 39.2757 87.5638 38.4405L89.4876 39.0292C93.217 40.2177 96.4791 41.2533 102.892 38.2575C103.392 38.0237 103.921 37.8154 104.446 37.6459ZM103.231 40.556C107.487 38.9366 111.422 38.7322 114.774 41.8761C110.926 40.0973 107.801 41.1106 104.023 41.9934C100.154 42.8974 97.3245 42.8371 95.0306 42.304C92.912 41.8111 91.2449 40.9125 89.6381 39.9982C94.0291 41.5472 98.6072 42.3158 103.231 40.556ZM92.2401 34.7625C92.6568 34.3458 93.2923 34.9812 92.8755 35.398C92.4596 35.8148 91.8234 35.1785 92.2401 34.7625ZM88.5763 10.0689C87.1597 13.6779 85.7367 17.3369 84.3136 20.9951L83.2368 23.7634C83.2876 22.865 83.2622 21.9704 83.2305 21.0838C83.1735 19.4769 83.1054 18.0492 83.8081 16.5786C84.4349 15.2674 85.1654 14.5891 85.9902 13.7952C85.8047 14.2231 85.373 15.1667 84.9341 16.2086C84.6045 16.9898 83.7012 19.0888 83.6284 19.37C83.5792 19.5602 83.6592 19.7677 83.8478 19.8169C84.0807 19.8772 84.2376 19.767 84.3089 19.5887C84.3739 19.4246 85.5584 16.4773 86.4125 14.3831C86.8514 13.3087 87.1945 12.4791 87.2341 12.4173C87.7326 11.6448 88.0472 10.6069 87.9354 9.71393C88.0795 9.86763 88.33 10.1204 88.5763 10.0689ZM79.1422 21.7232C79.3956 21.8016 79.7879 22.0314 80.184 22.4426C81.2759 23.5757 81.6341 25.261 81.5001 26.9129C80.9842 24.6177 79.0669 22.9173 76.7034 22.8134C76.3388 22.7976 75.976 22.8222 75.6225 22.8895C76.3499 21.6535 77.8087 21.3104 79.1422 21.7232ZM81.4367 18.5143C81.6831 18.8058 81.9303 19.0975 82.126 19.5261C82.336 19.9865 82.5047 20.7527 82.5309 21.6075C80.8591 20.8144 79.4281 19.3509 79.3592 17.4708C79.3276 16.6151 79.593 15.7514 80.1746 14.975C80.2125 15.9923 80.367 16.6848 80.5818 17.2069C80.8195 17.7861 81.1285 18.1506 81.4367 18.5143ZM101.729 15.9289C101.617 14.1288 101.811 11.5917 102.71 10.0483C102.978 9.58635 103.395 9.05471 103.929 9.30667C104.106 9.39066 104.231 9.54674 104.287 9.73927C104.386 10.0808 104.278 10.4579 104.115 10.797C103.833 11.3873 103.325 12.1884 102.968 12.8183C102.415 13.7928 101.97 14.8332 101.729 15.9289ZM103.467 16.4875C103.951 15.4971 104.711 14.3118 105.578 13.6954C106.383 13.1225 106.683 13.5401 106.592 13.8855C106.473 14.3348 105.711 14.769 105.248 15.0741C104.582 15.5106 103.997 15.9376 103.467 16.4875ZM93.3589 6.9495C92.7187 6.77282 92.2115 6.67297 91.8265 6.6603L91.1221 4.2445C92.4001 4.6153 93.5474 3.5013 94.9103 3.77623C95.7168 3.93944 96.1946 4.82209 96.0868 5.60255C95.983 6.00821 95.7486 6.30138 95.5814 6.49629C95.2002 6.92732 94.1584 7.13174 93.3589 6.9495ZM89.2435 8.37251L88.8434 9.38986C88.6849 9.12443 88.3157 9.1078 88.1303 8.57536C87.8831 7.86543 88.5732 7.26959 89.0224 7.75925C89.1587 7.90742 89.2531 8.28298 89.2435 8.37251ZM64.938 29.8604C66.35 27.5626 67.9972 28.2853 70.1999 27.8788C67.9037 29.904 66.8492 29.019 64.938 29.8604ZM73.7455 25.2975C72.5009 25.6453 72.0199 25.9788 70.9795 26.3298C69.414 26.8583 67.6969 26.2371 66.4133 25.3441C67.8563 25.5787 69.3189 25.497 70.7174 24.6874C71.8487 24.0328 73.1711 24.593 74.3954 25.1532L73.7455 25.2975ZM69.2278 30.2749C68.5138 31.7572 68.75 33.5479 67.7699 34.9527C67.8721 34.2199 67.7968 33.4655 67.6178 32.7517C67.346 31.6661 68.3546 30.7859 69.2278 30.2749ZM85.0901 35.2038L85.4649 34.9859C85.598 35.0644 85.7374 35.1364 85.8817 35.2031L85.0901 35.2038Z" fill="white"/>
</g>
<defs>
<clipPath id="clip0">
<rect width="138.388" height="48" fill="white"/>
</clipPath>
</defs>
</svg>
